{
	"patcher" : 	{
		"fileversion" : 1,
		"rect" : [ 402.0, 115.0, 611.0, 626.0 ],
		"bglocked" : 0,
		"defrect" : [ 402.0, 115.0, 611.0, 626.0 ],
		"openrect" : [ 0.0, 0.0, 0.0, 0.0 ],
		"openinpresentation" : 0,
		"default_fontsize" : 12.0,
		"default_fontface" : 0,
		"default_fontname" : "Arial",
		"gridonopen" : 0,
		"gridsize" : [ 15.0, 15.0 ],
		"gridsnaponopen" : 0,
		"toolbarvisible" : 1,
		"boxanimatetime" : 200,
		"imprint" : 0,
		"enablehscroll" : 1,
		"enablevscroll" : 1,
		"devicewidth" : 0.0,
		"boxes" : [ 			{
				"box" : 				{
					"maxclass" : "comment",
					"text" : "double click",
					"numinlets" : 1,
					"fontsize" : 12.0,
					"numoutlets" : 0,
					"id" : "obj-17",
					"fontname" : "Arial",
					"patching_rect" : [ 324.0, 63.0, 86.0, 20.0 ]
				}

			}
, 			{
				"box" : 				{
					"maxclass" : "message",
					"text" : "4n",
					"numinlets" : 2,
					"fontsize" : 12.0,
					"numoutlets" : 1,
					"outlettype" : [ "" ],
					"id" : "obj-14",
					"fontname" : "Arial",
					"patching_rect" : [ 210.0, 97.0, 32.5, 18.0 ]
				}

			}
, 			{
				"box" : 				{
					"maxclass" : "button",
					"numinlets" : 1,
					"numoutlets" : 1,
					"outlettype" : [ "bang" ],
					"id" : "obj-15",
					"patching_rect" : [ 210.0, 70.0, 20.0, 20.0 ]
				}

			}
, 			{
				"box" : 				{
					"maxclass" : "newobj",
					"text" : "timepoint 4.2.0",
					"numinlets" : 1,
					"fontsize" : 12.0,
					"numoutlets" : 1,
					"outlettype" : [ "bang" ],
					"id" : "obj-7",
					"fontname" : "Arial",
					"patching_rect" : [ 210.40802, 42.829025, 89.0, 20.0 ]
				}

			}
, 			{
				"box" : 				{
					"maxclass" : "newobj",
					"text" : "transport",
					"numinlets" : 2,
					"fontsize" : 12.0,
					"numoutlets" : 9,
					"outlettype" : [ "int", "int", "float", "float", "float", "", "int", "float", "" ],
					"id" : "obj-6",
					"fontname" : "Arial",
					"patching_rect" : [ 314.80777, 84.829025, 127.0, 20.0 ]
				}

			}
, 			{
				"box" : 				{
					"maxclass" : "number",
					"numinlets" : 1,
					"fontsize" : 12.0,
					"numoutlets" : 2,
					"outlettype" : [ "int", "bang" ],
					"id" : "obj-12",
					"fontname" : "Arial",
					"patching_rect" : [ 524.192749, 284.661804, 50.0, 20.0 ]
				}

			}
, 			{
				"box" : 				{
					"maxclass" : "message",
					"text" : "46",
					"numinlets" : 2,
					"fontsize" : 12.0,
					"numoutlets" : 1,
					"outlettype" : [ "" ],
					"id" : "obj-10",
					"fontname" : "Arial",
					"patching_rect" : [ 557.911865, 367.468719, 32.5, 18.0 ]
				}

			}
, 			{
				"box" : 				{
					"maxclass" : "message",
					"text" : "44",
					"numinlets" : 2,
					"fontsize" : 12.0,
					"numoutlets" : 1,
					"outlettype" : [ "" ],
					"id" : "obj-11",
					"fontname" : "Arial",
					"patching_rect" : [ 523.74408, 367.468719, 32.5, 18.0 ]
				}

			}
, 			{
				"box" : 				{
					"maxclass" : "button",
					"numinlets" : 1,
					"numoutlets" : 1,
					"outlettype" : [ "bang" ],
					"id" : "obj-29",
					"patching_rect" : [ 557.763, 344.106659, 20.0, 20.0 ]
				}

			}
, 			{
				"box" : 				{
					"maxclass" : "button",
					"numinlets" : 1,
					"numoutlets" : 1,
					"outlettype" : [ "bang" ],
					"id" : "obj-28",
					"patching_rect" : [ 523.763, 344.106659, 20.0, 20.0 ]
				}

			}
, 			{
				"box" : 				{
					"maxclass" : "newobj",
					"text" : "sel 1 2",
					"numinlets" : 1,
					"fontsize" : 11.595187,
					"numoutlets" : 3,
					"outlettype" : [ "bang", "bang", "" ],
					"id" : "obj-18",
					"fontname" : "Arial",
					"patching_rect" : [ 523.763, 310.29361, 46.0, 20.0 ]
				}

			}
, 			{
				"box" : 				{
					"maxclass" : "message",
					"text" : "38",
					"numinlets" : 2,
					"fontsize" : 12.0,
					"numoutlets" : 1,
					"outlettype" : [ "" ],
					"id" : "obj-9",
					"fontname" : "Arial",
					"patching_rect" : [ 487.911865, 367.468719, 32.5, 18.0 ]
				}

			}
, 			{
				"box" : 				{
					"maxclass" : "message",
					"text" : "36",
					"numinlets" : 2,
					"fontsize" : 12.0,
					"numoutlets" : 1,
					"outlettype" : [ "" ],
					"id" : "obj-30",
					"fontname" : "Arial",
					"patching_rect" : [ 453.74408, 367.468719, 32.5, 18.0 ]
				}

			}
, 			{
				"box" : 				{
					"maxclass" : "newobj",
					"text" : "makenote 100 16n",
					"numinlets" : 3,
					"fontsize" : 11.595187,
					"numoutlets" : 2,
					"outlettype" : [ "float", "float" ],
					"id" : "obj-2",
					"fontname" : "Arial",
					"patching_rect" : [ 453.74408, 399.468719, 107.0, 20.0 ]
				}

			}
, 			{
				"box" : 				{
					"maxclass" : "newobj",
					"text" : "noteout 10",
					"numinlets" : 3,
					"fontsize" : 11.595187,
					"numoutlets" : 0,
					"id" : "obj-4",
					"fontname" : "Arial",
					"patching_rect" : [ 453.74408, 431.468719, 65.0, 20.0 ]
				}

			}
, 			{
				"box" : 				{
					"maxclass" : "button",
					"numinlets" : 1,
					"numoutlets" : 1,
					"outlettype" : [ "bang" ],
					"id" : "obj-32",
					"patching_rect" : [ 487.533752, 342.640717, 20.0, 20.0 ]
				}

			}
, 			{
				"box" : 				{
					"maxclass" : "button",
					"numinlets" : 1,
					"numoutlets" : 1,
					"outlettype" : [ "bang" ],
					"id" : "obj-27",
					"patching_rect" : [ 454.357452, 343.29361, 20.0, 20.0 ]
				}

			}
, 			{
				"box" : 				{
					"maxclass" : "newobj",
					"text" : "sel 1 2",
					"numinlets" : 1,
					"fontsize" : 11.595187,
					"numoutlets" : 3,
					"outlettype" : [ "bang", "bang", "" ],
					"id" : "obj-26",
					"fontname" : "Arial",
					"patching_rect" : [ 454.357452, 310.29361, 46.0, 20.0 ]
				}

			}
, 			{
				"box" : 				{
					"maxclass" : "message",
					"text" : "fetch $1",
					"numinlets" : 2,
					"fontsize" : 12.0,
					"numoutlets" : 1,
					"outlettype" : [ "" ],
					"id" : "obj-8",
					"fontname" : "Arial",
					"patching_rect" : [ 28.0, 126.0, 53.0, 18.0 ]
				}

			}
, 			{
				"box" : 				{
					"maxclass" : "number",
					"numinlets" : 1,
					"fontsize" : 11.595187,
					"numoutlets" : 2,
					"outlettype" : [ "int", "bang" ],
					"id" : "obj-81",
					"fontname" : "Arial",
					"patching_rect" : [ 112.0, 52.0, 50.0, 20.0 ]
				}

			}
, 			{
				"box" : 				{
					"maxclass" : "umenu",
					"numinlets" : 1,
					"fontsize" : 11.595187,
					"numoutlets" : 3,
					"items" : [ "Up", ",", "Down", ",", "Up", "&", "Down" ],
					"outlettype" : [ "int", "", "" ],
					"id" : "obj-73",
					"fontname" : "Arial",
					"types" : [  ],
					"patching_rect" : [ 112.0, 30.0, 68.0, 20.0 ]
				}

			}
, 			{
				"box" : 				{
					"maxclass" : "number",
					"numinlets" : 1,
					"fontsize" : 11.595187,
					"numoutlets" : 2,
					"outlettype" : [ "int", "bang" ],
					"id" : "obj-25",
					"fontname" : "Arial",
					"patching_rect" : [ 28.0, 98.0, 50.0, 20.0 ]
				}

			}
, 			{
				"box" : 				{
					"maxclass" : "newobj",
					"text" : "counter 1 32",
					"numinlets" : 5,
					"fontsize" : 11.595187,
					"numoutlets" : 4,
					"outlettype" : [ "int", "", "", "int" ],
					"id" : "obj-23",
					"fontname" : "Arial",
					"patching_rect" : [ 28.0, 77.0, 75.0, 20.0 ]
				}

			}
, 			{
				"box" : 				{
					"maxclass" : "toggle",
					"numinlets" : 1,
					"numoutlets" : 1,
					"outlettype" : [ "int" ],
					"id" : "obj-22",
					"patching_rect" : [ 27.710335, 30.213959, 23.075706, 23.075706 ]
				}

			}
, 			{
				"box" : 				{
					"maxclass" : "newobj",
					"text" : "metro 32n",
					"numinlets" : 2,
					"fontsize" : 11.595187,
					"numoutlets" : 1,
					"outlettype" : [ "bang" ],
					"id" : "obj-21",
					"fontname" : "Arial",
					"patching_rect" : [ 28.0, 54.0, 63.0, 20.0 ]
				}

			}
, 			{
				"box" : 				{
					"maxclass" : "multislider",
					"setstyle" : 1,
					"numinlets" : 1,
					"settype" : 0,
					"numoutlets" : 2,
					"setminmax" : [ 0.0, 2.0 ],
					"outlettype" : [ "", "" ],
					"size" : 32,
					"id" : "obj-5",
					"patching_rect" : [ 28.0, 454.0, 565.0, 118.0 ]
				}

			}
, 			{
				"box" : 				{
					"maxclass" : "number",
					"numinlets" : 1,
					"fontsize" : 12.0,
					"numoutlets" : 2,
					"outlettype" : [ "int", "bang" ],
					"id" : "obj-3",
					"fontname" : "Arial",
					"patching_rect" : [ 454.0, 285.0, 50.0, 20.0 ]
				}

			}
, 			{
				"box" : 				{
					"maxclass" : "multislider",
					"setstyle" : 1,
					"numinlets" : 1,
					"settype" : 0,
					"numoutlets" : 2,
					"setminmax" : [ 0.0, 2.0 ],
					"outlettype" : [ "", "" ],
					"size" : 32,
					"id" : "obj-1",
					"patching_rect" : [ 28.0, 152.0, 565.0, 118.0 ]
				}

			}
 ],
		"lines" : [ 			{
				"patchline" : 				{
					"source" : [ "obj-7", 0 ],
					"destination" : [ "obj-15", 0 ],
					"hidden" : 0,
					"midpoints" : [  ]
				}

			}
, 			{
				"patchline" : 				{
					"source" : [ "obj-10", 0 ],
					"destination" : [ "obj-2", 0 ],
					"hidden" : 0,
					"midpoints" : [ 567.411865, 389.0, 463.24408, 389.0 ]
				}

			}
, 			{
				"patchline" : 				{
					"source" : [ "obj-11", 0 ],
					"destination" : [ "obj-2", 0 ],
					"hidden" : 0,
					"midpoints" : [ 533.24408, 389.0, 463.24408, 389.0 ]
				}

			}
, 			{
				"patchline" : 				{
					"source" : [ "obj-9", 0 ],
					"destination" : [ "obj-2", 0 ],
					"hidden" : 0,
					"midpoints" : [ 497.411865, 389.506226, 463.24408, 389.506226 ]
				}

			}
, 			{
				"patchline" : 				{
					"source" : [ "obj-30", 0 ],
					"destination" : [ "obj-2", 0 ],
					"hidden" : 0,
					"midpoints" : [ 463.24408, 391.468719, 463.24408, 400.468719 ]
				}

			}
, 			{
				"patchline" : 				{
					"source" : [ "obj-2", 0 ],
					"destination" : [ "obj-4", 0 ],
					"hidden" : 0,
					"midpoints" : [  ]
				}

			}
, 			{
				"patchline" : 				{
					"source" : [ "obj-2", 1 ],
					"destination" : [ "obj-4", 1 ],
					"hidden" : 0,
					"midpoints" : [ 551.24408, 424.968719, 486.24408, 424.968719 ]
				}

			}
, 			{
				"patchline" : 				{
					"source" : [ "obj-22", 0 ],
					"destination" : [ "obj-21", 0 ],
					"hidden" : 0,
					"midpoints" : [  ]
				}

			}
, 			{
				"patchline" : 				{
					"source" : [ "obj-21", 0 ],
					"destination" : [ "obj-23", 0 ],
					"hidden" : 0,
					"midpoints" : [  ]
				}

			}
, 			{
				"patchline" : 				{
					"source" : [ "obj-81", 0 ],
					"destination" : [ "obj-23", 1 ],
					"hidden" : 0,
					"midpoints" : [ 121.5, 75.424294, 51.5, 75.424294 ]
				}

			}
, 			{
				"patchline" : 				{
					"source" : [ "obj-73", 0 ],
					"destination" : [ "obj-81", 0 ],
					"hidden" : 0,
					"midpoints" : [  ]
				}

			}
, 			{
				"patchline" : 				{
					"source" : [ "obj-23", 0 ],
					"destination" : [ "obj-25", 0 ],
					"hidden" : 0,
					"midpoints" : [  ]
				}

			}
, 			{
				"patchline" : 				{
					"source" : [ "obj-1", 1 ],
					"destination" : [ "obj-3", 0 ],
					"hidden" : 0,
					"midpoints" : [ 583.5, 276.0, 463.5, 276.0 ]
				}

			}
, 			{
				"patchline" : 				{
					"source" : [ "obj-8", 0 ],
					"destination" : [ "obj-1", 0 ],
					"hidden" : 0,
					"midpoints" : [  ]
				}

			}
, 			{
				"patchline" : 				{
					"source" : [ "obj-25", 0 ],
					"destination" : [ "obj-8", 0 ],
					"hidden" : 0,
					"midpoints" : [  ]
				}

			}
, 			{
				"patchline" : 				{
					"source" : [ "obj-26", 0 ],
					"destination" : [ "obj-27", 0 ],
					"hidden" : 0,
					"midpoints" : [  ]
				}

			}
, 			{
				"patchline" : 				{
					"source" : [ "obj-26", 1 ],
					"destination" : [ "obj-32", 0 ],
					"hidden" : 0,
					"midpoints" : [ 477.357452, 338.29361, 497.033752, 338.29361 ]
				}

			}
, 			{
				"patchline" : 				{
					"source" : [ "obj-3", 0 ],
					"destination" : [ "obj-26", 0 ],
					"hidden" : 0,
					"midpoints" : [  ]
				}

			}
, 			{
				"patchline" : 				{
					"source" : [ "obj-27", 0 ],
					"destination" : [ "obj-30", 0 ],
					"hidden" : 0,
					"midpoints" : [  ]
				}

			}
, 			{
				"patchline" : 				{
					"source" : [ "obj-32", 0 ],
					"destination" : [ "obj-9", 0 ],
					"hidden" : 0,
					"midpoints" : [  ]
				}

			}
, 			{
				"patchline" : 				{
					"source" : [ "obj-18", 0 ],
					"destination" : [ "obj-28", 0 ],
					"hidden" : 0,
					"midpoints" : [  ]
				}

			}
, 			{
				"patchline" : 				{
					"source" : [ "obj-18", 1 ],
					"destination" : [ "obj-29", 0 ],
					"hidden" : 0,
					"midpoints" : [ 546.763, 339.106659, 567.263, 339.106659 ]
				}

			}
, 			{
				"patchline" : 				{
					"source" : [ "obj-28", 0 ],
					"destination" : [ "obj-11", 0 ],
					"hidden" : 0,
					"midpoints" : [  ]
				}

			}
, 			{
				"patchline" : 				{
					"source" : [ "obj-29", 0 ],
					"destination" : [ "obj-10", 0 ],
					"hidden" : 0,
					"midpoints" : [  ]
				}

			}
, 			{
				"patchline" : 				{
					"source" : [ "obj-8", 0 ],
					"destination" : [ "obj-5", 0 ],
					"hidden" : 0,
					"midpoints" : [ 37.5, 147.0, 21.397606, 147.0, 21.397606, 446.987946, 37.5, 446.987946 ]
				}

			}
, 			{
				"patchline" : 				{
					"source" : [ "obj-12", 0 ],
					"destination" : [ "obj-18", 0 ],
					"hidden" : 0,
					"midpoints" : [ 533.692749, 307.384216, 533.263, 307.384216 ]
				}

			}
, 			{
				"patchline" : 				{
					"source" : [ "obj-5", 1 ],
					"destination" : [ "obj-12", 0 ],
					"hidden" : 0,
					"midpoints" : [ 583.5, 574.831299, 596.650696, 574.831299, 596.650696, 281.601593, 533.692749, 281.601593 ]
				}

			}
, 			{
				"patchline" : 				{
					"source" : [ "obj-15", 0 ],
					"destination" : [ "obj-14", 0 ],
					"hidden" : 0,
					"midpoints" : [  ]
				}

			}
, 			{
				"patchline" : 				{
					"source" : [ "obj-14", 0 ],
					"destination" : [ "obj-21", 1 ],
					"hidden" : 0,
					"midpoints" : [ 219.5, 118.805649, 197.0, 118.805649, 197.0, 18.0, 81.5, 18.0 ]
				}

			}
 ]
	}

}
