{
	"patcher" : 	{
		"fileversion" : 1,
		"appversion" : 		{
			"major" : 6,
			"minor" : 0,
			"revision" : 0
		}
,
		"rect" : [ 475.0, 230.0, 739.0, 499.0 ],
		"bglocked" : 0,
		"openinpresentation" : 0,
		"default_fontsize" : 12.0,
		"default_fontface" : 0,
		"default_fontname" : "Arial",
		"gridonopen" : 0,
		"gridsize" : [ 15.0, 15.0 ],
		"gridsnaponopen" : 0,
		"statusbarvisible" : 2,
		"toolbarvisible" : 1,
		"boxanimatetime" : 200,
		"imprint" : 0,
		"enablehscroll" : 1,
		"enablevscroll" : 1,
		"devicewidth" : 0.0,
		"boxes" : [ 			{
				"box" : 				{
					"fontface" : 1,
					"fontname" : "Arial",
					"fontsize" : 12.0,
					"id" : "obj-45",
					"maxclass" : "comment",
					"numinlets" : 1,
					"numoutlets" : 0,
					"patching_rect" : [ 358.0, 68.0, 107.0, 20.0 ],
					"text" : "Beat Divisions"
				}

			}
, 			{
				"box" : 				{
					"fontface" : 1,
					"fontname" : "Arial",
					"fontsize" : 12.0,
					"id" : "obj-44",
					"maxclass" : "comment",
					"numinlets" : 1,
					"numoutlets" : 0,
					"patching_rect" : [ 588.0, 186.0, 91.0, 20.0 ],
					"text" : "MIDI Timbre"
				}

			}
, 			{
				"box" : 				{
					"fontface" : 1,
					"fontname" : "Arial",
					"fontsize" : 12.0,
					"id" : "obj-43",
					"maxclass" : "comment",
					"numinlets" : 1,
					"numoutlets" : 0,
					"patching_rect" : [ 377.0, 286.0, 107.0, 20.0 ],
					"text" : "Velocity Control"
				}

			}
, 			{
				"box" : 				{
					"fontname" : "Arial",
					"fontsize" : 12.0,
					"id" : "obj-42",
					"maxclass" : "number",
					"numinlets" : 1,
					"numoutlets" : 2,
					"outlettype" : [ "int", "bang" ],
					"parameter_enable" : 0,
					"patching_rect" : [ 324.548523, 329.384521, 50.0, 20.0 ]
				}

			}
, 			{
				"box" : 				{
					"id" : "obj-41",
					"maxclass" : "slider",
					"numinlets" : 1,
					"numoutlets" : 1,
					"outlettype" : [ "" ],
					"parameter_enable" : 0,
					"patching_rect" : [ 325.0, 309.0, 126.0, 17.0 ]
				}

			}
, 			{
				"box" : 				{
					"fontname" : "Arial",
					"fontsize" : 12.0,
					"id" : "obj-35",
					"maxclass" : "number",
					"numinlets" : 1,
					"numoutlets" : 2,
					"outlettype" : [ "int", "bang" ],
					"parameter_enable" : 0,
					"patching_rect" : [ 324.548523, 285.384521, 50.0, 20.0 ]
				}

			}
, 			{
				"box" : 				{
					"fontname" : "Arial",
					"fontsize" : 12.0,
					"id" : "obj-22",
					"maxclass" : "newobj",
					"numinlets" : 1,
					"numoutlets" : 3,
					"outlettype" : [ "int", "int", "int" ],
					"patching_rect" : [ 324.83551, 260.725464, 46.0, 20.0 ],
					"text" : "ctlin"
				}

			}
, 			{
				"box" : 				{
					"fontname" : "Arial",
					"fontsize" : 12.0,
					"id" : "obj-40",
					"maxclass" : "comment",
					"numinlets" : 1,
					"numoutlets" : 0,
					"patching_rect" : [ 609.0, 211.0, 43.0, 20.0 ],
					"text" : "128"
				}

			}
, 			{
				"box" : 				{
					"fontname" : "Arial",
					"fontsize" : 12.0,
					"id" : "obj-39",
					"maxclass" : "comment",
					"numinlets" : 1,
					"numoutlets" : 0,
					"patching_rect" : [ 609.0, 328.0, 21.0, 20.0 ],
					"text" : "1"
				}

			}
, 			{
				"box" : 				{
					"id" : "obj-38",
					"maxclass" : "slider",
					"min" : 1.0,
					"numinlets" : 1,
					"numoutlets" : 1,
					"outlettype" : [ "" ],
					"parameter_enable" : 0,
					"patching_rect" : [ 590.0, 209.0, 20.0, 140.0 ]
				}

			}
, 			{
				"box" : 				{
					"fontname" : "Arial",
					"fontsize" : 12.0,
					"id" : "obj-37",
					"maxclass" : "number",
					"numinlets" : 1,
					"numoutlets" : 2,
					"outlettype" : [ "int", "bang" ],
					"parameter_enable" : 0,
					"patching_rect" : [ 589.548523, 354.765686, 50.0, 20.0 ]
				}

			}
, 			{
				"box" : 				{
					"fontname" : "Arial",
					"fontsize" : 12.0,
					"id" : "obj-34",
					"maxclass" : "newobj",
					"numinlets" : 2,
					"numoutlets" : 0,
					"patching_rect" : [ 589.522156, 381.359039, 51.0, 20.0 ],
					"text" : "pgmout"
				}

			}
, 			{
				"box" : 				{
					"fontface" : 1,
					"fontname" : "Arial",
					"fontsize" : 12.0,
					"id" : "obj-32",
					"maxclass" : "comment",
					"numinlets" : 1,
					"numoutlets" : 0,
					"patching_rect" : [ 157.0, 241.0, 53.0, 20.0 ],
					"text" : "on / off"
				}

			}
, 			{
				"box" : 				{
					"fontname" : "Arial",
					"fontsize" : 12.0,
					"id" : "obj-30",
					"maxclass" : "comment",
					"numinlets" : 1,
					"numoutlets" : 0,
					"patching_rect" : [ 279.0, 207.0, 63.0, 20.0 ],
					"text" : "50 bpm"
				}

			}
, 			{
				"box" : 				{
					"fontname" : "Arial",
					"fontsize" : 12.0,
					"id" : "obj-29",
					"maxclass" : "comment",
					"numinlets" : 1,
					"numoutlets" : 0,
					"patching_rect" : [ 279.0, 87.0, 63.0, 20.0 ],
					"text" : "200 bpm"
				}

			}
, 			{
				"box" : 				{
					"fontface" : 1,
					"fontname" : "Arial",
					"fontsize" : 12.0,
					"id" : "obj-28",
					"linecount" : 2,
					"maxclass" : "comment",
					"numinlets" : 1,
					"numoutlets" : 0,
					"patching_rect" : [ 209.0, 143.0, 56.0, 34.0 ],
					"text" : "Control Tempo"
				}

			}
, 			{
				"box" : 				{
					"id" : "obj-26",
					"maxclass" : "slider",
					"min" : 50.0,
					"numinlets" : 1,
					"numoutlets" : 1,
					"outlettype" : [ "" ],
					"parameter_enable" : 0,
					"patching_rect" : [ 260.0, 88.0, 20.0, 140.0 ],
					"size" : 151.0
				}

			}
, 			{
				"box" : 				{
					"fontname" : "Arial",
					"fontsize" : 12.0,
					"id" : "obj-21",
					"maxclass" : "message",
					"numinlets" : 2,
					"numoutlets" : 1,
					"outlettype" : [ "" ],
					"patching_rect" : [ 497.716125, 182.0, 69.0, 18.0 ],
					"text" : "16th Notes"
				}

			}
, 			{
				"box" : 				{
					"fontname" : "Arial",
					"fontsize" : 12.0,
					"id" : "obj-20",
					"maxclass" : "message",
					"numinlets" : 2,
					"numoutlets" : 1,
					"outlettype" : [ "" ],
					"patching_rect" : [ 356.716095, 92.0, 79.0, 18.0 ],
					"text" : "Whole Notes"
				}

			}
, 			{
				"box" : 				{
					"fontname" : "Arial",
					"fontsize" : 12.0,
					"id" : "obj-17",
					"maxclass" : "message",
					"numinlets" : 2,
					"numoutlets" : 1,
					"outlettype" : [ "" ],
					"patching_rect" : [ 392.716095, 115.0, 67.0, 18.0 ],
					"text" : "Half Notes"
				}

			}
, 			{
				"box" : 				{
					"fontname" : "Arial",
					"fontsize" : 12.0,
					"id" : "obj-16",
					"maxclass" : "message",
					"numinlets" : 2,
					"numoutlets" : 1,
					"outlettype" : [ "" ],
					"patching_rect" : [ 427.716095, 138.0, 86.0, 18.0 ],
					"text" : "Quarter Notes"
				}

			}
, 			{
				"box" : 				{
					"fontname" : "Arial",
					"fontsize" : 12.0,
					"id" : "obj-15",
					"maxclass" : "message",
					"numinlets" : 2,
					"numoutlets" : 1,
					"outlettype" : [ "" ],
					"patching_rect" : [ 462.716095, 160.0, 62.0, 18.0 ],
					"text" : "8th Notes"
				}

			}
, 			{
				"box" : 				{
					"fontname" : "Arial",
					"fontsize" : 12.0,
					"id" : "obj-13",
					"maxclass" : "message",
					"numinlets" : 2,
					"numoutlets" : 1,
					"outlettype" : [ "" ],
					"patching_rect" : [ 498.336243, 205.598267, 32.5, 18.0 ],
					"text" : "16"
				}

			}
, 			{
				"box" : 				{
					"fontname" : "Arial",
					"fontsize" : 12.0,
					"id" : "obj-10",
					"maxclass" : "message",
					"numinlets" : 2,
					"numoutlets" : 1,
					"outlettype" : [ "" ],
					"patching_rect" : [ 462.750977, 205.598267, 32.5, 18.0 ],
					"text" : "8"
				}

			}
, 			{
				"box" : 				{
					"fontname" : "Arial",
					"fontsize" : 12.0,
					"id" : "obj-9",
					"maxclass" : "message",
					"numinlets" : 2,
					"numoutlets" : 1,
					"outlettype" : [ "" ],
					"patching_rect" : [ 392.800781, 205.598267, 32.5, 18.0 ],
					"text" : "2"
				}

			}
, 			{
				"box" : 				{
					"fontname" : "Arial",
					"fontsize" : 12.0,
					"id" : "obj-8",
					"maxclass" : "message",
					"numinlets" : 2,
					"numoutlets" : 1,
					"outlettype" : [ "" ],
					"patching_rect" : [ 357.066101, 205.598267, 32.5, 18.0 ],
					"text" : "1"
				}

			}
, 			{
				"box" : 				{
					"fontname" : "Arial",
					"fontsize" : 12.0,
					"id" : "obj-7",
					"maxclass" : "message",
					"numinlets" : 2,
					"numoutlets" : 1,
					"outlettype" : [ "" ],
					"patching_rect" : [ 428.336273, 205.598267, 32.5, 18.0 ],
					"text" : "4"
				}

			}
, 			{
				"box" : 				{
					"fontname" : "Arial",
					"fontsize" : 30.0,
					"id" : "obj-36",
					"maxclass" : "comment",
					"numinlets" : 1,
					"numoutlets" : 0,
					"patching_rect" : [ 31.382988, 65.387329, 186.458405, 41.0 ],
					"text" : "Homework 2"
				}

			}
, 			{
				"box" : 				{
					"fontname" : "Arial",
					"fontsize" : 12.0,
					"id" : "obj-31",
					"maxclass" : "number",
					"numinlets" : 1,
					"numoutlets" : 2,
					"outlettype" : [ "int", "bang" ],
					"parameter_enable" : 0,
					"patching_rect" : [ 229.074432, 239.810471, 50.0, 20.0 ]
				}

			}
, 			{
				"box" : 				{
					"id" : "obj-23",
					"maxclass" : "toggle",
					"numinlets" : 1,
					"numoutlets" : 1,
					"outlettype" : [ "int" ],
					"parameter_enable" : 0,
					"patching_rect" : [ 206.041519, 241.064957, 20.0, 20.0 ]
				}

			}
, 			{
				"box" : 				{
					"fontname" : "Arial",
					"fontsize" : 12.0,
					"id" : "obj-19",
					"maxclass" : "newobj",
					"numinlets" : 4,
					"numoutlets" : 1,
					"outlettype" : [ "int" ],
					"patching_rect" : [ 206.324631, 265.080994, 87.0, 20.0 ],
					"text" : "tempo 120 1 8"
				}

			}
, 			{
				"box" : 				{
					"fontname" : "Arial",
					"fontsize" : 12.0,
					"id" : "obj-18",
					"maxclass" : "newobj",
					"numinlets" : 3,
					"numoutlets" : 0,
					"patching_rect" : [ 205.905472, 381.359039, 51.0, 20.0 ],
					"text" : "noteout"
				}

			}
, 			{
				"box" : 				{
					"fontname" : "Arial",
					"fontsize" : 12.0,
					"id" : "obj-12",
					"maxclass" : "newobj",
					"numinlets" : 3,
					"numoutlets" : 2,
					"outlettype" : [ "float", "float" ],
					"patching_rect" : [ 205.911377, 354.765686, 111.0, 20.0 ],
					"text" : "makenote 100 500"
				}

			}
, 			{
				"box" : 				{
					"fontname" : "Arial",
					"fontsize" : 12.0,
					"id" : "obj-5",
					"maxclass" : "number",
					"numinlets" : 1,
					"numoutlets" : 2,
					"outlettype" : [ "int", "bang" ],
					"parameter_enable" : 0,
					"patching_rect" : [ 206.07431, 332.726898, 50.0, 20.0 ]
				}

			}
, 			{
				"box" : 				{
					"id" : "obj-3",
					"maxclass" : "button",
					"numinlets" : 1,
					"numoutlets" : 1,
					"outlettype" : [ "bang" ],
					"patching_rect" : [ 205.748444, 289.013977, 20.0, 20.0 ]
				}

			}
, 			{
				"box" : 				{
					"fontname" : "Arial",
					"fontsize" : 12.0,
					"id" : "obj-1",
					"maxclass" : "newobj",
					"numinlets" : 2,
					"numoutlets" : 1,
					"outlettype" : [ "int" ],
					"patching_rect" : [ 205.911377, 310.940704, 75.0, 20.0 ],
					"text" : "random 128"
				}

			}
 ],
		"lines" : [ 			{
				"patchline" : 				{
					"destination" : [ "obj-5", 0 ],
					"disabled" : 0,
					"hidden" : 0,
					"source" : [ "obj-1", 0 ]
				}

			}
, 			{
				"patchline" : 				{
					"destination" : [ "obj-19", 3 ],
					"disabled" : 0,
					"hidden" : 0,
					"midpoints" : [ 472.250977, 243.83963, 283.824646, 243.83963 ],
					"source" : [ "obj-10", 0 ]
				}

			}
, 			{
				"patchline" : 				{
					"destination" : [ "obj-18", 1 ],
					"disabled" : 0,
					"hidden" : 0,
					"midpoints" : [ 307.411377, 377.282196, 231.405472, 377.282196 ],
					"source" : [ "obj-12", 1 ]
				}

			}
, 			{
				"patchline" : 				{
					"destination" : [ "obj-18", 0 ],
					"disabled" : 0,
					"hidden" : 0,
					"source" : [ "obj-12", 0 ]
				}

			}
, 			{
				"patchline" : 				{
					"destination" : [ "obj-19", 3 ],
					"disabled" : 0,
					"hidden" : 0,
					"midpoints" : [ 507.836243, 243.83963, 283.824646, 243.83963 ],
					"source" : [ "obj-13", 0 ]
				}

			}
, 			{
				"patchline" : 				{
					"destination" : [ "obj-10", 0 ],
					"disabled" : 0,
					"hidden" : 0,
					"source" : [ "obj-15", 0 ]
				}

			}
, 			{
				"patchline" : 				{
					"destination" : [ "obj-7", 0 ],
					"disabled" : 0,
					"hidden" : 0,
					"source" : [ "obj-16", 0 ]
				}

			}
, 			{
				"patchline" : 				{
					"destination" : [ "obj-9", 0 ],
					"disabled" : 0,
					"hidden" : 0,
					"source" : [ "obj-17", 0 ]
				}

			}
, 			{
				"patchline" : 				{
					"destination" : [ "obj-3", 0 ],
					"disabled" : 0,
					"hidden" : 0,
					"source" : [ "obj-19", 0 ]
				}

			}
, 			{
				"patchline" : 				{
					"destination" : [ "obj-8", 0 ],
					"disabled" : 0,
					"hidden" : 0,
					"source" : [ "obj-20", 0 ]
				}

			}
, 			{
				"patchline" : 				{
					"destination" : [ "obj-13", 0 ],
					"disabled" : 0,
					"hidden" : 0,
					"source" : [ "obj-21", 0 ]
				}

			}
, 			{
				"patchline" : 				{
					"destination" : [ "obj-35", 0 ],
					"disabled" : 0,
					"hidden" : 0,
					"source" : [ "obj-22", 0 ]
				}

			}
, 			{
				"patchline" : 				{
					"destination" : [ "obj-19", 0 ],
					"disabled" : 0,
					"hidden" : 0,
					"source" : [ "obj-23", 0 ]
				}

			}
, 			{
				"patchline" : 				{
					"destination" : [ "obj-31", 0 ],
					"disabled" : 0,
					"hidden" : 0,
					"midpoints" : [ 269.5, 235.0, 238.574432, 235.0 ],
					"source" : [ "obj-26", 0 ]
				}

			}
, 			{
				"patchline" : 				{
					"destination" : [ "obj-1", 0 ],
					"disabled" : 0,
					"hidden" : 0,
					"source" : [ "obj-3", 0 ]
				}

			}
, 			{
				"patchline" : 				{
					"destination" : [ "obj-19", 1 ],
					"disabled" : 0,
					"hidden" : 0,
					"source" : [ "obj-31", 0 ]
				}

			}
, 			{
				"patchline" : 				{
					"destination" : [ "obj-41", 0 ],
					"disabled" : 0,
					"hidden" : 0,
					"source" : [ "obj-35", 0 ]
				}

			}
, 			{
				"patchline" : 				{
					"destination" : [ "obj-34", 0 ],
					"disabled" : 0,
					"hidden" : 0,
					"source" : [ "obj-37", 0 ]
				}

			}
, 			{
				"patchline" : 				{
					"destination" : [ "obj-37", 0 ],
					"disabled" : 0,
					"hidden" : 0,
					"source" : [ "obj-38", 0 ]
				}

			}
, 			{
				"patchline" : 				{
					"destination" : [ "obj-42", 0 ],
					"disabled" : 0,
					"hidden" : 0,
					"source" : [ "obj-41", 0 ]
				}

			}
, 			{
				"patchline" : 				{
					"destination" : [ "obj-12", 1 ],
					"disabled" : 0,
					"hidden" : 0,
					"midpoints" : [ 334.048523, 351.575104, 261.411377, 351.575104 ],
					"source" : [ "obj-42", 0 ]
				}

			}
, 			{
				"patchline" : 				{
					"destination" : [ "obj-12", 0 ],
					"disabled" : 0,
					"hidden" : 0,
					"source" : [ "obj-5", 0 ]
				}

			}
, 			{
				"patchline" : 				{
					"destination" : [ "obj-19", 3 ],
					"disabled" : 0,
					"hidden" : 0,
					"midpoints" : [ 437.836273, 243.83963, 283.824646, 243.83963 ],
					"source" : [ "obj-7", 0 ]
				}

			}
, 			{
				"patchline" : 				{
					"destination" : [ "obj-19", 3 ],
					"disabled" : 0,
					"hidden" : 0,
					"midpoints" : [ 366.566101, 243.83963, 283.824646, 243.83963 ],
					"source" : [ "obj-8", 0 ]
				}

			}
, 			{
				"patchline" : 				{
					"destination" : [ "obj-19", 3 ],
					"disabled" : 0,
					"hidden" : 0,
					"midpoints" : [ 402.300781, 243.83963, 283.824646, 243.83963 ],
					"source" : [ "obj-9", 0 ]
				}

			}
 ],
		"dependency_cache" : [  ]
	}

}
