{
	"patcher" : 	{
		"fileversion" : 1,
		"appversion" : 		{
			"major" : 5,
			"minor" : 1,
			"revision" : 9
		}
,
		"rect" : [ 594.0, 300.0, 483.0, 256.0 ],
		"bglocked" : 0,
		"defrect" : [ 594.0, 300.0, 483.0, 256.0 ],
		"openrect" : [ 0.0, 0.0, 0.0, 0.0 ],
		"openinpresentation" : 0,
		"default_fontsize" : 12.0,
		"default_fontface" : 0,
		"default_fontname" : "Arial",
		"gridonopen" : 0,
		"gridsize" : [ 15.0, 15.0 ],
		"gridsnaponopen" : 0,
		"toolbarvisible" : 1,
		"boxanimatetime" : 200,
		"imprint" : 0,
		"enablehscroll" : 1,
		"enablevscroll" : 1,
		"devicewidth" : 0.0,
		"boxes" : [ 			{
				"box" : 				{
					"maxclass" : "newobj",
					"text" : "p Look_here_too",
					"fontname" : "Arial",
					"numinlets" : 0,
					"patching_rect" : [ 19.0, 126.0, 101.0, 20.0 ],
					"numoutlets" : 0,
					"fontsize" : 12.0,
					"id" : "obj-6",
					"color" : [ 0.521569, 0.301961, 0.792157, 1.0 ],
					"patcher" : 					{
						"fileversion" : 1,
						"appversion" : 						{
							"major" : 5,
							"minor" : 1,
							"revision" : 9
						}
,
						"rect" : [ 157.0, 139.0, 627.0, 240.0 ],
						"bglocked" : 0,
						"defrect" : [ 157.0, 139.0, 627.0, 240.0 ],
						"openrect" : [ 0.0, 0.0, 0.0, 0.0 ],
						"openinpresentation" : 0,
						"default_fontsize" : 12.0,
						"default_fontface" : 0,
						"default_fontname" : "Arial",
						"gridonopen" : 0,
						"gridsize" : [ 15.0, 15.0 ],
						"gridsnaponopen" : 0,
						"toolbarvisible" : 1,
						"boxanimatetime" : 200,
						"imprint" : 0,
						"enablehscroll" : 1,
						"enablevscroll" : 1,
						"devicewidth" : 0.0,
						"boxes" : [ 							{
								"box" : 								{
									"maxclass" : "comment",
									"text" : "bass note",
									"fontname" : "Arial",
									"numinlets" : 1,
									"patching_rect" : [ 282.717133, 192.789886, 65.0, 20.0 ],
									"numoutlets" : 0,
									"fontsize" : 12.0,
									"id" : "obj-3",
									"presentation_rect" : [ 282.717133, 194.789886, 0.0, 0.0 ]
								}

							}
, 							{
								"box" : 								{
									"maxclass" : "comment",
									"text" : "Simple Bass Note Getter",
									"fontname" : "Arial",
									"numinlets" : 1,
									"patching_rect" : [ 39.0, 27.0, 166.0, 20.0 ],
									"numoutlets" : 0,
									"fontface" : 1,
									"fontsize" : 12.0,
									"id" : "obj-8"
								}

							}
, 							{
								"box" : 								{
									"maxclass" : "comment",
									"text" : "bass note",
									"fontname" : "Arial",
									"numinlets" : 1,
									"patching_rect" : [ 36.0, 152.0, 64.0, 20.0 ],
									"numoutlets" : 0,
									"fontsize" : 12.0,
									"id" : "obj-31"
								}

							}
, 							{
								"box" : 								{
									"maxclass" : "comment",
									"text" : "ordered",
									"fontname" : "Arial",
									"numinlets" : 1,
									"patching_rect" : [ 36.0, 117.0, 51.0, 20.0 ],
									"numoutlets" : 0,
									"fontsize" : 12.0,
									"id" : "obj-30"
								}

							}
, 							{
								"box" : 								{
									"maxclass" : "comment",
									"text" : "chord",
									"fontname" : "Arial",
									"numinlets" : 1,
									"patching_rect" : [ 36.0, 84.0, 45.0, 20.0 ],
									"numoutlets" : 0,
									"fontsize" : 12.0,
									"id" : "obj-29"
								}

							}
, 							{
								"box" : 								{
									"maxclass" : "comment",
									"text" : "bang if no notes are being played",
									"linecount" : 2,
									"fontname" : "Arial",
									"numinlets" : 1,
									"patching_rect" : [ 377.0, 131.0, 158.0, 34.0 ],
									"numoutlets" : 0,
									"fontsize" : 12.0,
									"id" : "obj-28"
								}

							}
, 							{
								"box" : 								{
									"maxclass" : "comment",
									"text" : "number of notes held down",
									"fontname" : "Arial",
									"numinlets" : 1,
									"patching_rect" : [ 369.0, 77.0, 158.0, 20.0 ],
									"numoutlets" : 0,
									"fontsize" : 12.0,
									"id" : "obj-27"
								}

							}
, 							{
								"box" : 								{
									"maxclass" : "button",
									"numinlets" : 1,
									"patching_rect" : [ 357.0, 139.0, 20.0, 20.0 ],
									"numoutlets" : 1,
									"outlettype" : [ "bang" ],
									"id" : "obj-25"
								}

							}
, 							{
								"box" : 								{
									"maxclass" : "newobj",
									"text" : "sel 0",
									"fontname" : "Arial",
									"numinlets" : 2,
									"patching_rect" : [ 317.0, 104.0, 36.0, 20.0 ],
									"numoutlets" : 2,
									"fontsize" : 12.0,
									"outlettype" : [ "bang", "" ],
									"id" : "obj-23"
								}

							}
, 							{
								"box" : 								{
									"maxclass" : "number",
									"fontname" : "Arial",
									"numinlets" : 1,
									"patching_rect" : [ 232.0, 194.0, 50.0, 20.0 ],
									"numoutlets" : 2,
									"fontsize" : 12.0,
									"outlettype" : [ "int", "bang" ],
									"id" : "obj-20"
								}

							}
, 							{
								"box" : 								{
									"maxclass" : "message",
									"text" : "set",
									"fontname" : "Arial",
									"numinlets" : 2,
									"patching_rect" : [ 317.0, 139.0, 32.5, 18.0 ],
									"numoutlets" : 1,
									"fontsize" : 12.0,
									"outlettype" : [ "" ],
									"id" : "obj-18"
								}

							}
, 							{
								"box" : 								{
									"maxclass" : "newobj",
									"text" : "borax",
									"fontname" : "Arial",
									"numinlets" : 3,
									"patching_rect" : [ 296.0, 50.0, 101.0, 21.0 ],
									"numoutlets" : 9,
									"fontsize" : 13.0,
									"outlettype" : [ "int", "int", "int", "int", "int", "int", "int", "int", "int" ],
									"id" : "obj-12"
								}

							}
, 							{
								"box" : 								{
									"maxclass" : "number",
									"fontname" : "Arial",
									"numinlets" : 1,
									"patching_rect" : [ 316.75, 77.5, 53.0, 21.0 ],
									"numoutlets" : 2,
									"fontsize" : 13.0,
									"outlettype" : [ "int", "bang" ],
									"id" : "obj-21"
								}

							}
, 							{
								"box" : 								{
									"maxclass" : "message",
									"fontname" : "Arial",
									"numinlets" : 2,
									"patching_rect" : [ 96.0, 153.0, 89.0, 18.0 ],
									"numoutlets" : 1,
									"fontsize" : 12.0,
									"outlettype" : [ "" ],
									"id" : "obj-14"
								}

							}
, 							{
								"box" : 								{
									"maxclass" : "message",
									"fontname" : "Arial",
									"numinlets" : 2,
									"patching_rect" : [ 96.0, 117.0, 89.0, 18.0 ],
									"numoutlets" : 1,
									"fontsize" : 12.0,
									"outlettype" : [ "" ],
									"id" : "obj-13"
								}

							}
, 							{
								"box" : 								{
									"maxclass" : "newobj",
									"text" : "zl slice 1",
									"fontname" : "Arial",
									"numinlets" : 2,
									"patching_rect" : [ 232.0, 151.0, 57.0, 20.0 ],
									"numoutlets" : 2,
									"fontsize" : 12.0,
									"outlettype" : [ "", "" ],
									"id" : "obj-7"
								}

							}
, 							{
								"box" : 								{
									"maxclass" : "newobj",
									"text" : "zl sort",
									"fontname" : "Arial",
									"numinlets" : 2,
									"patching_rect" : [ 232.0, 117.0, 43.0, 20.0 ],
									"numoutlets" : 2,
									"fontsize" : 12.0,
									"outlettype" : [ "", "" ],
									"id" : "obj-6"
								}

							}
, 							{
								"box" : 								{
									"maxclass" : "newobj",
									"text" : "stripnote",
									"fontname" : "Arial",
									"numinlets" : 2,
									"patching_rect" : [ 232.0, 52.0, 57.0, 20.0 ],
									"numoutlets" : 2,
									"fontsize" : 12.0,
									"outlettype" : [ "int", "int" ],
									"id" : "obj-5"
								}

							}
, 							{
								"box" : 								{
									"maxclass" : "message",
									"fontname" : "Arial",
									"numinlets" : 2,
									"patching_rect" : [ 96.0, 85.0, 89.0, 18.0 ],
									"numoutlets" : 1,
									"fontsize" : 12.0,
									"outlettype" : [ "" ],
									"id" : "obj-4"
								}

							}
, 							{
								"box" : 								{
									"maxclass" : "newobj",
									"text" : "quickthresh",
									"fontname" : "Arial",
									"numinlets" : 4,
									"patching_rect" : [ 232.0, 82.0, 72.0, 20.0 ],
									"numoutlets" : 1,
									"fontsize" : 12.0,
									"outlettype" : [ "" ],
									"id" : "obj-2"
								}

							}
, 							{
								"box" : 								{
									"maxclass" : "newobj",
									"text" : "notein",
									"fontname" : "Arial",
									"numinlets" : 1,
									"patching_rect" : [ 232.0, 21.0, 46.0, 20.0 ],
									"numoutlets" : 3,
									"fontsize" : 12.0,
									"outlettype" : [ "int", "int", "int" ],
									"id" : "obj-1"
								}

							}
 ],
						"lines" : [ 							{
								"patchline" : 								{
									"source" : [ "obj-1", 1 ],
									"destination" : [ "obj-12", 1 ],
									"hidden" : 0,
									"midpoints" : [ 255.0, 46.5, 346.5, 46.5 ]
								}

							}
, 							{
								"patchline" : 								{
									"source" : [ "obj-1", 0 ],
									"destination" : [ "obj-12", 0 ],
									"hidden" : 0,
									"midpoints" : [ 241.5, 46.0, 305.5, 46.0 ]
								}

							}
, 							{
								"patchline" : 								{
									"source" : [ "obj-1", 1 ],
									"destination" : [ "obj-5", 1 ],
									"hidden" : 0,
									"midpoints" : [ 255.0, 47.0, 279.5, 47.0 ]
								}

							}
, 							{
								"patchline" : 								{
									"source" : [ "obj-1", 0 ],
									"destination" : [ "obj-5", 0 ],
									"hidden" : 0,
									"midpoints" : [  ]
								}

							}
, 							{
								"patchline" : 								{
									"source" : [ "obj-12", 2 ],
									"destination" : [ "obj-21", 0 ],
									"hidden" : 0,
									"midpoints" : [  ]
								}

							}
, 							{
								"patchline" : 								{
									"source" : [ "obj-18", 0 ],
									"destination" : [ "obj-13", 0 ],
									"hidden" : 0,
									"midpoints" : [ 326.5, 181.0, 228.649506, 181.0, 228.649506, 106.598022, 105.5, 106.598022 ]
								}

							}
, 							{
								"patchline" : 								{
									"source" : [ "obj-18", 0 ],
									"destination" : [ "obj-14", 0 ],
									"hidden" : 0,
									"midpoints" : [ 326.5, 181.0, 228.649506, 181.0, 228.649506, 141.0, 105.5, 141.0 ]
								}

							}
, 							{
								"patchline" : 								{
									"source" : [ "obj-18", 0 ],
									"destination" : [ "obj-4", 0 ],
									"hidden" : 0,
									"midpoints" : [ 326.5, 181.0, 228.0, 181.0, 228.0, 76.0, 105.5, 76.0 ]
								}

							}
, 							{
								"patchline" : 								{
									"source" : [ "obj-2", 0 ],
									"destination" : [ "obj-4", 1 ],
									"hidden" : 0,
									"midpoints" : [ 241.5, 106.0, 228.247528, 106.0, 228.247528, 79.0, 175.5, 79.0 ]
								}

							}
, 							{
								"patchline" : 								{
									"source" : [ "obj-2", 0 ],
									"destination" : [ "obj-6", 0 ],
									"hidden" : 0,
									"midpoints" : [  ]
								}

							}
, 							{
								"patchline" : 								{
									"source" : [ "obj-21", 0 ],
									"destination" : [ "obj-23", 0 ],
									"hidden" : 0,
									"midpoints" : [  ]
								}

							}
, 							{
								"patchline" : 								{
									"source" : [ "obj-23", 0 ],
									"destination" : [ "obj-18", 0 ],
									"hidden" : 0,
									"midpoints" : [  ]
								}

							}
, 							{
								"patchline" : 								{
									"source" : [ "obj-23", 0 ],
									"destination" : [ "obj-25", 0 ],
									"hidden" : 0,
									"midpoints" : [ 326.5, 131.5, 366.5, 131.5 ]
								}

							}
, 							{
								"patchline" : 								{
									"source" : [ "obj-5", 0 ],
									"destination" : [ "obj-2", 0 ],
									"hidden" : 0,
									"midpoints" : [  ]
								}

							}
, 							{
								"patchline" : 								{
									"source" : [ "obj-6", 0 ],
									"destination" : [ "obj-13", 1 ],
									"hidden" : 0,
									"midpoints" : [ 241.5, 142.0, 228.397034, 142.0, 228.397034, 110.154442, 175.5, 110.154442 ]
								}

							}
, 							{
								"patchline" : 								{
									"source" : [ "obj-6", 0 ],
									"destination" : [ "obj-7", 0 ],
									"hidden" : 0,
									"midpoints" : [  ]
								}

							}
, 							{
								"patchline" : 								{
									"source" : [ "obj-7", 0 ],
									"destination" : [ "obj-14", 1 ],
									"hidden" : 0,
									"midpoints" : [ 241.5, 175.0, 228.247528, 175.0, 228.247528, 147.0, 175.5, 147.0 ]
								}

							}
, 							{
								"patchline" : 								{
									"source" : [ "obj-7", 0 ],
									"destination" : [ "obj-20", 0 ],
									"hidden" : 0,
									"midpoints" : [  ]
								}

							}
 ]
					}
,
					"saved_object_attributes" : 					{
						"fontname" : "Arial",
						"globalpatchername" : "",
						"default_fontname" : "Arial",
						"default_fontsize" : 12.0,
						"fontface" : 0,
						"fontsize" : 12.0,
						"default_fontface" : 0
					}

				}

			}
, 			{
				"box" : 				{
					"maxclass" : "comment",
					"text" : "play a one octave C Major scale and click the button",
					"linecount" : 3,
					"fontname" : "Arial",
					"numinlets" : 1,
					"patching_rect" : [ 33.0, 16.0, 111.0, 48.0 ],
					"numoutlets" : 0,
					"fontsize" : 12.0,
					"id" : "obj-7"
				}

			}
, 			{
				"box" : 				{
					"maxclass" : "newobj",
					"text" : "loadmess locrian_b4",
					"fontname" : "Arial",
					"numinlets" : 1,
					"hidden" : 1,
					"patching_rect" : [ 324.0, 34.0, 122.0, 20.0 ],
					"numoutlets" : 1,
					"fontsize" : 12.0,
					"outlettype" : [ "" ],
					"id" : "obj-2"
				}

			}
, 			{
				"box" : 				{
					"maxclass" : "message",
					"text" : "0",
					"fontname" : "Arial",
					"numinlets" : 2,
					"patching_rect" : [ 176.0, 117.0, 32.5, 18.0 ],
					"numoutlets" : 1,
					"fontsize" : 12.0,
					"outlettype" : [ "" ],
					"id" : "obj-30"
				}

			}
, 			{
				"box" : 				{
					"maxclass" : "button",
					"numinlets" : 1,
					"patching_rect" : [ 358.0, 59.0, 20.0, 20.0 ],
					"numoutlets" : 1,
					"outlettype" : [ "bang" ],
					"id" : "obj-28"
				}

			}
, 			{
				"box" : 				{
					"maxclass" : "message",
					"text" : "lydian",
					"fontname" : "Arial",
					"numinlets" : 2,
					"patching_rect" : [ 358.0, 89.0, 42.0, 18.0 ],
					"numoutlets" : 1,
					"fontsize" : 12.0,
					"outlettype" : [ "" ],
					"id" : "obj-26"
				}

			}
, 			{
				"box" : 				{
					"maxclass" : "button",
					"numinlets" : 1,
					"patching_rect" : [ 141.020844, 85.661774, 20.0, 20.0 ],
					"numoutlets" : 1,
					"outlettype" : [ "bang" ],
					"id" : "obj-24"
				}

			}
, 			{
				"box" : 				{
					"maxclass" : "newobj",
					"text" : "int",
					"fontname" : "Arial",
					"numinlets" : 2,
					"patching_rect" : [ 141.263336, 107.909821, 32.5, 20.0 ],
					"numoutlets" : 1,
					"fontsize" : 12.0,
					"outlettype" : [ "int" ],
					"id" : "obj-15"
				}

			}
, 			{
				"box" : 				{
					"maxclass" : "message",
					"text" : "locrian_b4",
					"fontname" : "Arial",
					"numinlets" : 2,
					"patching_rect" : [ 254.526672, 86.959854, 66.0, 18.0 ],
					"numoutlets" : 1,
					"fontsize" : 12.0,
					"outlettype" : [ "" ],
					"id" : "obj-16"
				}

			}
, 			{
				"box" : 				{
					"maxclass" : "newobj",
					"text" : "+ 1",
					"fontname" : "Arial",
					"numinlets" : 2,
					"patching_rect" : [ 162.526672, 140.959839, 32.5, 20.0 ],
					"numoutlets" : 1,
					"fontsize" : 12.0,
					"outlettype" : [ "int" ],
					"id" : "obj-18"
				}

			}
, 			{
				"box" : 				{
					"maxclass" : "number",
					"fontname" : "Arial",
					"numinlets" : 1,
					"patching_rect" : [ 162.526672, 165.959839, 50.0, 20.0 ],
					"numoutlets" : 2,
					"fontsize" : 12.0,
					"outlettype" : [ "int", "bang" ],
					"id" : "obj-19"
				}

			}
, 			{
				"box" : 				{
					"maxclass" : "newobj",
					"text" : "match 2 2 1 2 2 2 1",
					"fontname" : "Arial",
					"numinlets" : 1,
					"patching_rect" : [ 200.790009, 58.493103, 114.0, 20.0 ],
					"numoutlets" : 1,
					"fontsize" : 12.0,
					"outlettype" : [ "" ],
					"id" : "obj-20"
				}

			}
, 			{
				"box" : 				{
					"maxclass" : "newobj",
					"text" : "notein",
					"fontname" : "Arial",
					"numinlets" : 1,
					"patching_rect" : [ 286.053284, 7.712967, 46.0, 20.0 ],
					"numoutlets" : 3,
					"fontsize" : 12.0,
					"outlettype" : [ "int", "int", "int" ],
					"id" : "obj-5"
				}

			}
, 			{
				"box" : 				{
					"maxclass" : "modal_change",
					"numinlets" : 2,
					"patching_rect" : [ 11.386505, 193.972351, 450.268524, 51.199471 ],
					"numoutlets" : 9,
					"outlettype" : [ "int", "int", "int", "int", "int", "int", "int", "int", "list" ],
					"id" : "obj-4"
				}

			}
, 			{
				"box" : 				{
					"maxclass" : "button",
					"numinlets" : 1,
					"patching_rect" : [ 151.053345, 8.763, 20.0, 20.0 ],
					"numoutlets" : 1,
					"outlettype" : [ "bang" ],
					"id" : "obj-3"
				}

			}
, 			{
				"box" : 				{
					"maxclass" : "newobj",
					"text" : "scale_analysis_abstraction",
					"fontname" : "Arial",
					"numinlets" : 2,
					"patching_rect" : [ 151.053345, 31.763016, 156.0, 20.0 ],
					"numoutlets" : 2,
					"fontsize" : 12.0,
					"outlettype" : [ "int", "" ],
					"id" : "obj-1"
				}

			}
 ],
		"lines" : [ 			{
				"patchline" : 				{
					"source" : [ "obj-1", 0 ],
					"destination" : [ "obj-15", 1 ],
					"hidden" : 0,
					"midpoints" : [ 160.553345, 79.336426, 164.263336, 79.336426 ]
				}

			}
, 			{
				"patchline" : 				{
					"source" : [ "obj-1", 1 ],
					"destination" : [ "obj-20", 0 ],
					"hidden" : 0,
					"midpoints" : [ 297.553345, 54.49638, 210.290009, 54.49638 ]
				}

			}
, 			{
				"patchline" : 				{
					"source" : [ "obj-15", 0 ],
					"destination" : [ "obj-18", 0 ],
					"hidden" : 0,
					"midpoints" : [ 150.763336, 132.959839, 172.026672, 132.959839 ]
				}

			}
, 			{
				"patchline" : 				{
					"source" : [ "obj-16", 0 ],
					"destination" : [ "obj-4", 1 ],
					"hidden" : 0,
					"midpoints" : [ 264.026672, 166.5, 452.155029, 166.5 ]
				}

			}
, 			{
				"patchline" : 				{
					"source" : [ "obj-18", 0 ],
					"destination" : [ "obj-19", 0 ],
					"hidden" : 0,
					"midpoints" : [  ]
				}

			}
, 			{
				"patchline" : 				{
					"source" : [ "obj-19", 0 ],
					"destination" : [ "obj-4", 0 ],
					"hidden" : 0,
					"midpoints" : [ 172.026672, 189.5, 20.886505, 189.5 ]
				}

			}
, 			{
				"patchline" : 				{
					"source" : [ "obj-2", 0 ],
					"destination" : [ "obj-16", 1 ],
					"hidden" : 1,
					"midpoints" : [ 333.5, 81.0, 311.026672, 81.0 ]
				}

			}
, 			{
				"patchline" : 				{
					"source" : [ "obj-20", 0 ],
					"destination" : [ "obj-16", 0 ],
					"hidden" : 0,
					"midpoints" : [ 210.290009, 81.703094, 264.026672, 81.703094 ]
				}

			}
, 			{
				"patchline" : 				{
					"source" : [ "obj-20", 0 ],
					"destination" : [ "obj-24", 0 ],
					"hidden" : 0,
					"midpoints" : [ 210.290009, 82.070908, 150.520844, 82.070908 ]
				}

			}
, 			{
				"patchline" : 				{
					"source" : [ "obj-24", 0 ],
					"destination" : [ "obj-15", 0 ],
					"hidden" : 0,
					"midpoints" : [  ]
				}

			}
, 			{
				"patchline" : 				{
					"source" : [ "obj-26", 0 ],
					"destination" : [ "obj-16", 1 ],
					"hidden" : 0,
					"midpoints" : [ 367.5, 118.0, 339.763336, 118.0, 339.763336, 81.959854, 311.026672, 81.959854 ]
				}

			}
, 			{
				"patchline" : 				{
					"source" : [ "obj-28", 0 ],
					"destination" : [ "obj-26", 0 ],
					"hidden" : 0,
					"midpoints" : [  ]
				}

			}
, 			{
				"patchline" : 				{
					"source" : [ "obj-28", 0 ],
					"destination" : [ "obj-30", 0 ],
					"hidden" : 0,
					"midpoints" : [ 367.5, 81.0, 343.0, 81.0, 343.0, 111.0, 185.5, 111.0 ]
				}

			}
, 			{
				"patchline" : 				{
					"source" : [ "obj-3", 0 ],
					"destination" : [ "obj-1", 0 ],
					"hidden" : 0,
					"midpoints" : [  ]
				}

			}
, 			{
				"patchline" : 				{
					"source" : [ "obj-30", 0 ],
					"destination" : [ "obj-18", 1 ],
					"hidden" : 0,
					"midpoints" : [  ]
				}

			}
, 			{
				"patchline" : 				{
					"source" : [ "obj-5", 0 ],
					"destination" : [ "obj-1", 1 ],
					"hidden" : 0,
					"midpoints" : [  ]
				}

			}
 ]
	}

}
