{
	"patcher" : 	{
		"fileversion" : 1,
		"rect" : [ 6.0, 44.0, 1404.0, 830.0 ],
		"bglocked" : 0,
		"defrect" : [ 6.0, 44.0, 1404.0, 830.0 ],
		"openrect" : [ 0.0, 0.0, 0.0, 0.0 ],
		"openinpresentation" : 1,
		"default_fontsize" : 12.0,
		"default_fontface" : 0,
		"default_fontname" : "Arial",
		"gridonopen" : 0,
		"gridsize" : [ 15.0, 15.0 ],
		"gridsnaponopen" : 0,
		"toolbarvisible" : 1,
		"boxanimatetime" : 200,
		"imprint" : 0,
		"enablehscroll" : 1,
		"enablevscroll" : 1,
		"devicewidth" : 0.0,
		"title" : "EAMIR Chord Namer",
		"boxes" : [ 			{
				"box" : 				{
					"maxclass" : "comment",
					"text" : "replay chord",
					"presentation" : 1,
					"numinlets" : 1,
					"fontsize" : 12.0,
					"numoutlets" : 0,
					"presentation_rect" : [ 29.0, 86.0, 78.0, 20.0 ],
					"id" : "obj-41",
					"fontname" : "Arial",
					"patching_rect" : [ 59.0, 153.0, 78.0, 20.0 ]
				}

			}
, 			{
				"box" : 				{
					"maxclass" : "button",
					"presentation" : 1,
					"numinlets" : 1,
					"blinkcolor" : [ 0.403922, 0.109804, 0.701961, 1.0 ],
					"numoutlets" : 1,
					"outlettype" : [ "bang" ],
					"presentation_rect" : [ 10.0, 86.0, 20.0, 20.0 ],
					"id" : "obj-39",
					"patching_rect" : [ 40.0, 154.0, 20.0, 20.0 ]
				}

			}
, 			{
				"box" : 				{
					"maxclass" : "comment",
					"text" : "or",
					"numinlets" : 1,
					"fontface" : 1,
					"fontsize" : 30.0,
					"numoutlets" : 0,
					"id" : "obj-50",
					"fontname" : "Arial",
					"patching_rect" : [ 2415.703857, 889.345032, 86.0, 41.0 ]
				}

			}
, 			{
				"box" : 				{
					"maxclass" : "comment",
					"text" : "A#\n\nBb",
					"linecount" : 3,
					"numinlets" : 1,
					"fontface" : 1,
					"fontsize" : 44.0,
					"numoutlets" : 0,
					"id" : "obj-54",
					"fontname" : "Arial",
					"patching_rect" : [ 2410.703857, 827.345032, 116.0, 158.0 ]
				}

			}
, 			{
				"box" : 				{
					"maxclass" : "comment",
					"text" : "or",
					"numinlets" : 1,
					"fontface" : 1,
					"fontsize" : 30.0,
					"numoutlets" : 0,
					"id" : "obj-58",
					"fontname" : "Arial",
					"patching_rect" : [ 2333.703857, 889.345032, 86.0, 41.0 ]
				}

			}
, 			{
				"box" : 				{
					"maxclass" : "comment",
					"text" : "G#\n\nAb",
					"linecount" : 3,
					"numinlets" : 1,
					"fontface" : 1,
					"fontsize" : 44.0,
					"numoutlets" : 0,
					"id" : "obj-65",
					"fontname" : "Arial",
					"patching_rect" : [ 2328.703857, 827.345032, 117.0, 158.0 ]
				}

			}
, 			{
				"box" : 				{
					"maxclass" : "comment",
					"text" : "or",
					"numinlets" : 1,
					"fontface" : 1,
					"fontsize" : 30.0,
					"numoutlets" : 0,
					"id" : "obj-66",
					"fontname" : "Arial",
					"patching_rect" : [ 2251.703857, 889.345032, 86.0, 41.0 ]
				}

			}
, 			{
				"box" : 				{
					"maxclass" : "comment",
					"text" : "F#\n\nGb",
					"linecount" : 3,
					"numinlets" : 1,
					"fontface" : 1,
					"fontsize" : 44.0,
					"numoutlets" : 0,
					"id" : "obj-67",
					"fontname" : "Arial",
					"patching_rect" : [ 2246.703857, 827.345032, 116.0, 158.0 ]
				}

			}
, 			{
				"box" : 				{
					"maxclass" : "comment",
					"text" : "or",
					"presentation" : 1,
					"numinlets" : 1,
					"fontface" : 1,
					"fontsize" : 30.0,
					"numoutlets" : 0,
					"presentation_rect" : [ 1277.335449, 572.442017, 86.0, 41.0 ],
					"id" : "obj-68",
					"fontname" : "Arial",
					"patching_rect" : [ 2090.703857, 889.345032, 86.0, 41.0 ]
				}

			}
, 			{
				"box" : 				{
					"maxclass" : "comment",
					"text" : "D#\n\nEb",
					"linecount" : 3,
					"presentation_linecount" : 3,
					"presentation" : 1,
					"numinlets" : 1,
					"fontface" : 1,
					"fontsize" : 45.0,
					"numoutlets" : 0,
					"presentation_rect" : [ 1272.335449, 510.442017, 119.0, 162.0 ],
					"id" : "obj-69",
					"fontname" : "Arial",
					"patching_rect" : [ 2085.703857, 827.345032, 119.0, 162.0 ]
				}

			}
, 			{
				"box" : 				{
					"maxclass" : "comment",
					"text" : "or",
					"presentation" : 1,
					"numinlets" : 1,
					"fontface" : 1,
					"fontsize" : 30.0,
					"numoutlets" : 0,
					"presentation_rect" : [ 1195.335449, 572.442017, 86.0, 41.0 ],
					"id" : "obj-70",
					"fontname" : "Arial",
					"patching_rect" : [ 2008.703857, 889.345032, 86.0, 41.0 ]
				}

			}
, 			{
				"box" : 				{
					"maxclass" : "comment",
					"text" : "C#\n\nDb",
					"linecount" : 3,
					"presentation_linecount" : 3,
					"presentation" : 1,
					"numinlets" : 1,
					"fontface" : 1,
					"fontsize" : 45.0,
					"numoutlets" : 0,
					"presentation_rect" : [ 1190.335449, 510.442017, 119.0, 162.0 ],
					"id" : "obj-71",
					"fontname" : "Arial",
					"patching_rect" : [ 2003.703857, 827.345032, 119.0, 162.0 ]
				}

			}
, 			{
				"box" : 				{
					"maxclass" : "comment",
					"text" : "B",
					"numinlets" : 1,
					"frgb" : [ 1.0, 1.0, 1.0, 1.0 ],
					"textcolor" : [ 1.0, 1.0, 1.0, 1.0 ],
					"fontface" : 1,
					"fontsize" : 72.0,
					"numoutlets" : 0,
					"id" : "obj-79",
					"fontname" : "Arial",
					"patching_rect" : [ 2451.703857, 1048.345093, 68.0, 89.0 ]
				}

			}
, 			{
				"box" : 				{
					"maxclass" : "comment",
					"text" : "A",
					"numinlets" : 1,
					"frgb" : [ 1.0, 1.0, 1.0, 1.0 ],
					"textcolor" : [ 1.0, 1.0, 1.0, 1.0 ],
					"fontface" : 1,
					"fontsize" : 72.0,
					"numoutlets" : 0,
					"id" : "obj-86",
					"fontname" : "Arial",
					"patching_rect" : [ 2369.703857, 1048.345093, 68.0, 89.0 ]
				}

			}
, 			{
				"box" : 				{
					"maxclass" : "comment",
					"text" : "G",
					"numinlets" : 1,
					"frgb" : [ 1.0, 1.0, 1.0, 1.0 ],
					"textcolor" : [ 1.0, 1.0, 1.0, 1.0 ],
					"fontface" : 1,
					"fontsize" : 72.0,
					"numoutlets" : 0,
					"id" : "obj-88",
					"fontname" : "Arial",
					"patching_rect" : [ 2287.703857, 1048.345093, 68.0, 89.0 ]
				}

			}
, 			{
				"box" : 				{
					"maxclass" : "comment",
					"text" : "F",
					"numinlets" : 1,
					"frgb" : [ 1.0, 1.0, 1.0, 1.0 ],
					"textcolor" : [ 1.0, 1.0, 1.0, 1.0 ],
					"fontface" : 1,
					"fontsize" : 72.0,
					"numoutlets" : 0,
					"id" : "obj-91",
					"fontname" : "Arial",
					"patching_rect" : [ 2207.703857, 1048.345093, 68.0, 89.0 ]
				}

			}
, 			{
				"box" : 				{
					"maxclass" : "comment",
					"text" : "E",
					"presentation" : 1,
					"numinlets" : 1,
					"frgb" : [ 1.0, 1.0, 1.0, 1.0 ],
					"textcolor" : [ 1.0, 1.0, 1.0, 1.0 ],
					"fontface" : 1,
					"fontsize" : 72.0,
					"numoutlets" : 0,
					"presentation_rect" : [ 1312.335449, 731.442078, 68.0, 89.0 ],
					"id" : "obj-96",
					"fontname" : "Arial",
					"patching_rect" : [ 2125.703857, 1048.345093, 68.0, 89.0 ]
				}

			}
, 			{
				"box" : 				{
					"maxclass" : "comment",
					"text" : "D",
					"presentation" : 1,
					"numinlets" : 1,
					"frgb" : [ 1.0, 1.0, 1.0, 1.0 ],
					"textcolor" : [ 1.0, 1.0, 1.0, 1.0 ],
					"fontface" : 1,
					"fontsize" : 72.0,
					"numoutlets" : 0,
					"presentation_rect" : [ 1231.335449, 731.442078, 68.0, 89.0 ],
					"id" : "obj-97",
					"fontname" : "Arial",
					"patching_rect" : [ 2044.703857, 1048.345093, 68.0, 89.0 ]
				}

			}
, 			{
				"box" : 				{
					"maxclass" : "comment",
					"text" : "C",
					"presentation" : 1,
					"numinlets" : 1,
					"frgb" : [ 1.0, 1.0, 1.0, 1.0 ],
					"textcolor" : [ 1.0, 1.0, 1.0, 1.0 ],
					"fontface" : 1,
					"fontsize" : 72.0,
					"numoutlets" : 0,
					"presentation_rect" : [ 1152.335449, 731.442078, 68.0, 89.0 ],
					"id" : "obj-98",
					"fontname" : "Arial",
					"patching_rect" : [ 1965.703857, 1048.345093, 68.0, 89.0 ]
				}

			}
, 			{
				"box" : 				{
					"maxclass" : "comment",
					"text" : "or",
					"presentation" : 1,
					"numinlets" : 1,
					"fontface" : 1,
					"fontsize" : 30.0,
					"numoutlets" : 0,
					"presentation_rect" : [ 1036.335449, 571.442017, 86.0, 41.0 ],
					"id" : "obj-101",
					"fontname" : "Arial",
					"patching_rect" : [ 1849.703857, 888.345032, 86.0, 41.0 ]
				}

			}
, 			{
				"box" : 				{
					"maxclass" : "comment",
					"text" : "A#\n\nBb",
					"linecount" : 3,
					"presentation_linecount" : 3,
					"presentation" : 1,
					"numinlets" : 1,
					"fontface" : 1,
					"fontsize" : 44.0,
					"numoutlets" : 0,
					"presentation_rect" : [ 1031.335449, 509.442017, 116.0, 158.0 ],
					"id" : "obj-103",
					"fontname" : "Arial",
					"patching_rect" : [ 1844.703857, 826.345032, 116.0, 158.0 ]
				}

			}
, 			{
				"box" : 				{
					"maxclass" : "comment",
					"text" : "or",
					"presentation" : 1,
					"numinlets" : 1,
					"fontface" : 1,
					"fontsize" : 30.0,
					"numoutlets" : 0,
					"presentation_rect" : [ 954.335449, 571.442017, 86.0, 41.0 ],
					"id" : "obj-108",
					"fontname" : "Arial",
					"patching_rect" : [ 1767.703857, 888.345032, 86.0, 41.0 ]
				}

			}
, 			{
				"box" : 				{
					"maxclass" : "comment",
					"text" : "G#\n\nAb",
					"linecount" : 3,
					"presentation_linecount" : 3,
					"presentation" : 1,
					"numinlets" : 1,
					"fontface" : 1,
					"fontsize" : 44.0,
					"numoutlets" : 0,
					"presentation_rect" : [ 949.335449, 509.442017, 117.0, 158.0 ],
					"id" : "obj-111",
					"fontname" : "Arial",
					"patching_rect" : [ 1762.703857, 826.345032, 117.0, 158.0 ]
				}

			}
, 			{
				"box" : 				{
					"maxclass" : "comment",
					"text" : "or",
					"presentation" : 1,
					"numinlets" : 1,
					"fontface" : 1,
					"fontsize" : 30.0,
					"numoutlets" : 0,
					"presentation_rect" : [ 872.33551, 571.442017, 86.0, 41.0 ],
					"id" : "obj-115",
					"fontname" : "Arial",
					"patching_rect" : [ 1685.703857, 888.345032, 86.0, 41.0 ]
				}

			}
, 			{
				"box" : 				{
					"maxclass" : "comment",
					"text" : "F#\n\nGb",
					"linecount" : 3,
					"presentation_linecount" : 3,
					"presentation" : 1,
					"numinlets" : 1,
					"fontface" : 1,
					"fontsize" : 44.0,
					"numoutlets" : 0,
					"presentation_rect" : [ 867.33551, 509.442017, 116.0, 158.0 ],
					"id" : "obj-117",
					"fontname" : "Arial",
					"patching_rect" : [ 1680.703857, 826.345032, 116.0, 158.0 ]
				}

			}
, 			{
				"box" : 				{
					"maxclass" : "comment",
					"text" : "or",
					"presentation" : 1,
					"numinlets" : 1,
					"fontface" : 1,
					"fontsize" : 30.0,
					"numoutlets" : 0,
					"presentation_rect" : [ 711.33551, 571.442017, 86.0, 41.0 ],
					"id" : "obj-118",
					"fontname" : "Arial",
					"patching_rect" : [ 1524.703857, 888.345032, 86.0, 41.0 ]
				}

			}
, 			{
				"box" : 				{
					"maxclass" : "comment",
					"text" : "D#\n\nEb",
					"linecount" : 3,
					"presentation_linecount" : 3,
					"presentation" : 1,
					"numinlets" : 1,
					"fontface" : 1,
					"fontsize" : 45.0,
					"numoutlets" : 0,
					"presentation_rect" : [ 706.33551, 509.442017, 119.0, 162.0 ],
					"id" : "obj-119",
					"fontname" : "Arial",
					"patching_rect" : [ 1519.703857, 826.345032, 119.0, 162.0 ]
				}

			}
, 			{
				"box" : 				{
					"maxclass" : "comment",
					"text" : "or",
					"presentation" : 1,
					"numinlets" : 1,
					"fontface" : 1,
					"fontsize" : 30.0,
					"numoutlets" : 0,
					"presentation_rect" : [ 629.33551, 571.442017, 86.0, 41.0 ],
					"id" : "obj-124",
					"fontname" : "Arial",
					"patching_rect" : [ 1442.703857, 888.345032, 86.0, 41.0 ]
				}

			}
, 			{
				"box" : 				{
					"maxclass" : "comment",
					"text" : "C#\n\nDb",
					"linecount" : 3,
					"presentation_linecount" : 3,
					"presentation" : 1,
					"numinlets" : 1,
					"fontface" : 1,
					"fontsize" : 45.0,
					"numoutlets" : 0,
					"presentation_rect" : [ 624.33551, 509.442017, 119.0, 162.0 ],
					"id" : "obj-125",
					"fontname" : "Arial",
					"patching_rect" : [ 1437.703857, 826.345032, 119.0, 162.0 ]
				}

			}
, 			{
				"box" : 				{
					"maxclass" : "comment",
					"text" : "or",
					"presentation" : 1,
					"numinlets" : 1,
					"fontface" : 1,
					"fontsize" : 30.0,
					"numoutlets" : 0,
					"presentation_rect" : [ 469.33551, 572.442017, 86.0, 41.0 ],
					"id" : "obj-126",
					"fontname" : "Arial",
					"patching_rect" : [ 1282.703857, 889.345032, 86.0, 41.0 ]
				}

			}
, 			{
				"box" : 				{
					"maxclass" : "comment",
					"text" : "A#\n\nBb",
					"linecount" : 3,
					"presentation_linecount" : 3,
					"presentation" : 1,
					"numinlets" : 1,
					"fontface" : 1,
					"fontsize" : 44.0,
					"numoutlets" : 0,
					"presentation_rect" : [ 464.33551, 510.442017, 116.0, 158.0 ],
					"id" : "obj-127",
					"fontname" : "Arial",
					"patching_rect" : [ 1277.703857, 827.345032, 116.0, 158.0 ]
				}

			}
, 			{
				"box" : 				{
					"maxclass" : "comment",
					"text" : "or",
					"presentation" : 1,
					"numinlets" : 1,
					"fontface" : 1,
					"fontsize" : 30.0,
					"numoutlets" : 0,
					"presentation_rect" : [ 387.33548, 572.442017, 86.0, 41.0 ],
					"id" : "obj-128",
					"fontname" : "Arial",
					"patching_rect" : [ 1200.703857, 889.345032, 86.0, 41.0 ]
				}

			}
, 			{
				"box" : 				{
					"maxclass" : "comment",
					"text" : "G#\n\nAb",
					"linecount" : 3,
					"presentation_linecount" : 3,
					"presentation" : 1,
					"numinlets" : 1,
					"fontface" : 1,
					"fontsize" : 44.0,
					"numoutlets" : 0,
					"presentation_rect" : [ 382.33548, 510.442017, 117.0, 158.0 ],
					"id" : "obj-129",
					"fontname" : "Arial",
					"patching_rect" : [ 1195.703857, 827.345032, 117.0, 158.0 ]
				}

			}
, 			{
				"box" : 				{
					"maxclass" : "comment",
					"text" : "or",
					"presentation" : 1,
					"numinlets" : 1,
					"fontface" : 1,
					"fontsize" : 30.0,
					"numoutlets" : 0,
					"presentation_rect" : [ 305.33548, 572.442017, 86.0, 41.0 ],
					"id" : "obj-130",
					"fontname" : "Arial",
					"patching_rect" : [ 1118.703857, 889.345032, 86.0, 41.0 ]
				}

			}
, 			{
				"box" : 				{
					"maxclass" : "comment",
					"text" : "F#\n\nGb",
					"linecount" : 3,
					"presentation_linecount" : 3,
					"presentation" : 1,
					"numinlets" : 1,
					"fontface" : 1,
					"fontsize" : 44.0,
					"numoutlets" : 0,
					"presentation_rect" : [ 300.33548, 510.442017, 116.0, 158.0 ],
					"id" : "obj-131",
					"fontname" : "Arial",
					"patching_rect" : [ 1113.703857, 827.345032, 116.0, 158.0 ]
				}

			}
, 			{
				"box" : 				{
					"maxclass" : "comment",
					"text" : "or",
					"presentation" : 1,
					"numinlets" : 1,
					"fontface" : 1,
					"fontsize" : 30.0,
					"numoutlets" : 0,
					"presentation_rect" : [ 144.335495, 572.442017, 86.0, 41.0 ],
					"id" : "obj-132",
					"fontname" : "Arial",
					"patching_rect" : [ 957.703918, 889.345032, 86.0, 41.0 ]
				}

			}
, 			{
				"box" : 				{
					"maxclass" : "comment",
					"text" : "D#\n\nEb",
					"linecount" : 3,
					"presentation_linecount" : 3,
					"presentation" : 1,
					"numinlets" : 1,
					"fontface" : 1,
					"fontsize" : 45.0,
					"numoutlets" : 0,
					"presentation_rect" : [ 139.335495, 510.442017, 119.0, 162.0 ],
					"id" : "obj-133",
					"fontname" : "Arial",
					"patching_rect" : [ 952.703918, 827.345032, 119.0, 162.0 ]
				}

			}
, 			{
				"box" : 				{
					"maxclass" : "comment",
					"text" : "or",
					"presentation" : 1,
					"numinlets" : 1,
					"fontface" : 1,
					"fontsize" : 30.0,
					"numoutlets" : 0,
					"presentation_rect" : [ 62.335495, 572.442017, 86.0, 41.0 ],
					"id" : "obj-134",
					"fontname" : "Arial",
					"patching_rect" : [ 875.703918, 889.345032, 86.0, 41.0 ]
				}

			}
, 			{
				"box" : 				{
					"maxclass" : "comment",
					"text" : "C#\n\nDb",
					"linecount" : 3,
					"presentation_linecount" : 3,
					"presentation" : 1,
					"numinlets" : 1,
					"fontface" : 1,
					"fontsize" : 45.0,
					"numoutlets" : 0,
					"presentation_rect" : [ 57.335495, 510.442017, 119.0, 162.0 ],
					"id" : "obj-135",
					"fontname" : "Arial",
					"patching_rect" : [ 870.703918, 827.345032, 119.0, 162.0 ]
				}

			}
, 			{
				"box" : 				{
					"maxclass" : "comment",
					"text" : "B",
					"presentation" : 1,
					"numinlets" : 1,
					"frgb" : [ 1.0, 1.0, 1.0, 1.0 ],
					"textcolor" : [ 1.0, 1.0, 1.0, 1.0 ],
					"fontface" : 1,
					"fontsize" : 72.0,
					"numoutlets" : 0,
					"presentation_rect" : [ 1071.335449, 730.442078, 68.0, 89.0 ],
					"id" : "obj-136",
					"fontname" : "Arial",
					"patching_rect" : [ 1884.703857, 1047.345093, 68.0, 89.0 ]
				}

			}
, 			{
				"box" : 				{
					"maxclass" : "comment",
					"text" : "A",
					"presentation" : 1,
					"numinlets" : 1,
					"frgb" : [ 1.0, 1.0, 1.0, 1.0 ],
					"textcolor" : [ 1.0, 1.0, 1.0, 1.0 ],
					"fontface" : 1,
					"fontsize" : 72.0,
					"numoutlets" : 0,
					"presentation_rect" : [ 989.335449, 730.442078, 68.0, 89.0 ],
					"id" : "obj-137",
					"fontname" : "Arial",
					"patching_rect" : [ 1802.703857, 1047.345093, 68.0, 89.0 ]
				}

			}
, 			{
				"box" : 				{
					"maxclass" : "comment",
					"text" : "G",
					"presentation" : 1,
					"numinlets" : 1,
					"frgb" : [ 1.0, 1.0, 1.0, 1.0 ],
					"textcolor" : [ 1.0, 1.0, 1.0, 1.0 ],
					"fontface" : 1,
					"fontsize" : 72.0,
					"numoutlets" : 0,
					"presentation_rect" : [ 907.33551, 730.442078, 68.0, 89.0 ],
					"id" : "obj-138",
					"fontname" : "Arial",
					"patching_rect" : [ 1720.703857, 1047.345093, 68.0, 89.0 ]
				}

			}
, 			{
				"box" : 				{
					"maxclass" : "comment",
					"text" : "F",
					"presentation" : 1,
					"numinlets" : 1,
					"frgb" : [ 1.0, 1.0, 1.0, 1.0 ],
					"textcolor" : [ 1.0, 1.0, 1.0, 1.0 ],
					"fontface" : 1,
					"fontsize" : 72.0,
					"numoutlets" : 0,
					"presentation_rect" : [ 827.33551, 730.442078, 68.0, 89.0 ],
					"id" : "obj-139",
					"fontname" : "Arial",
					"patching_rect" : [ 1640.703857, 1047.345093, 68.0, 89.0 ]
				}

			}
, 			{
				"box" : 				{
					"maxclass" : "comment",
					"text" : "E",
					"presentation" : 1,
					"numinlets" : 1,
					"frgb" : [ 1.0, 1.0, 1.0, 1.0 ],
					"textcolor" : [ 1.0, 1.0, 1.0, 1.0 ],
					"fontface" : 1,
					"fontsize" : 72.0,
					"numoutlets" : 0,
					"presentation_rect" : [ 745.33551, 730.442078, 68.0, 89.0 ],
					"id" : "obj-140",
					"fontname" : "Arial",
					"patching_rect" : [ 1558.703857, 1047.345093, 68.0, 89.0 ]
				}

			}
, 			{
				"box" : 				{
					"maxclass" : "comment",
					"text" : "D",
					"presentation" : 1,
					"numinlets" : 1,
					"frgb" : [ 1.0, 1.0, 1.0, 1.0 ],
					"textcolor" : [ 1.0, 1.0, 1.0, 1.0 ],
					"fontface" : 1,
					"fontsize" : 72.0,
					"numoutlets" : 0,
					"presentation_rect" : [ 664.33551, 730.442078, 68.0, 89.0 ],
					"id" : "obj-141",
					"fontname" : "Arial",
					"patching_rect" : [ 1477.703857, 1047.345093, 68.0, 89.0 ]
				}

			}
, 			{
				"box" : 				{
					"maxclass" : "comment",
					"text" : "C",
					"presentation" : 1,
					"numinlets" : 1,
					"frgb" : [ 1.0, 1.0, 1.0, 1.0 ],
					"textcolor" : [ 1.0, 1.0, 1.0, 1.0 ],
					"fontface" : 1,
					"fontsize" : 72.0,
					"numoutlets" : 0,
					"presentation_rect" : [ 585.33551, 730.442078, 68.0, 89.0 ],
					"id" : "obj-142",
					"fontname" : "Arial",
					"patching_rect" : [ 1398.703857, 1047.345093, 68.0, 89.0 ]
				}

			}
, 			{
				"box" : 				{
					"maxclass" : "comment",
					"text" : "B",
					"presentation" : 1,
					"numinlets" : 1,
					"frgb" : [ 1.0, 1.0, 1.0, 1.0 ],
					"textcolor" : [ 1.0, 1.0, 1.0, 1.0 ],
					"fontface" : 1,
					"fontsize" : 72.0,
					"numoutlets" : 0,
					"presentation_rect" : [ 505.33551, 731.442078, 68.0, 89.0 ],
					"id" : "obj-143",
					"fontname" : "Arial",
					"patching_rect" : [ 1318.703857, 1048.345093, 68.0, 89.0 ]
				}

			}
, 			{
				"box" : 				{
					"maxclass" : "comment",
					"text" : "A",
					"presentation" : 1,
					"numinlets" : 1,
					"frgb" : [ 1.0, 1.0, 1.0, 1.0 ],
					"textcolor" : [ 1.0, 1.0, 1.0, 1.0 ],
					"fontface" : 1,
					"fontsize" : 72.0,
					"numoutlets" : 0,
					"presentation_rect" : [ 423.33551, 731.442078, 68.0, 89.0 ],
					"id" : "obj-144",
					"fontname" : "Arial",
					"patching_rect" : [ 1236.703857, 1048.345093, 68.0, 89.0 ]
				}

			}
, 			{
				"box" : 				{
					"maxclass" : "comment",
					"text" : "G",
					"presentation" : 1,
					"numinlets" : 1,
					"frgb" : [ 1.0, 1.0, 1.0, 1.0 ],
					"textcolor" : [ 1.0, 1.0, 1.0, 1.0 ],
					"fontface" : 1,
					"fontsize" : 72.0,
					"numoutlets" : 0,
					"presentation_rect" : [ 341.33548, 731.442078, 68.0, 89.0 ],
					"id" : "obj-146",
					"fontname" : "Arial",
					"patching_rect" : [ 1154.703857, 1048.345093, 68.0, 89.0 ]
				}

			}
, 			{
				"box" : 				{
					"maxclass" : "comment",
					"text" : "F",
					"presentation" : 1,
					"numinlets" : 1,
					"frgb" : [ 1.0, 1.0, 1.0, 1.0 ],
					"textcolor" : [ 1.0, 1.0, 1.0, 1.0 ],
					"fontface" : 1,
					"fontsize" : 72.0,
					"numoutlets" : 0,
					"presentation_rect" : [ 261.33548, 731.442078, 68.0, 89.0 ],
					"id" : "obj-147",
					"fontname" : "Arial",
					"patching_rect" : [ 1074.703857, 1048.345093, 68.0, 89.0 ]
				}

			}
, 			{
				"box" : 				{
					"maxclass" : "comment",
					"text" : "E",
					"presentation" : 1,
					"numinlets" : 1,
					"frgb" : [ 1.0, 1.0, 1.0, 1.0 ],
					"textcolor" : [ 1.0, 1.0, 1.0, 1.0 ],
					"fontface" : 1,
					"fontsize" : 72.0,
					"numoutlets" : 0,
					"presentation_rect" : [ 179.33551, 731.442078, 68.0, 89.0 ],
					"id" : "obj-148",
					"fontname" : "Arial",
					"patching_rect" : [ 992.703918, 1048.345093, 68.0, 89.0 ]
				}

			}
, 			{
				"box" : 				{
					"maxclass" : "comment",
					"text" : "D",
					"presentation" : 1,
					"numinlets" : 1,
					"frgb" : [ 1.0, 1.0, 1.0, 1.0 ],
					"textcolor" : [ 1.0, 1.0, 1.0, 1.0 ],
					"fontface" : 1,
					"fontsize" : 72.0,
					"numoutlets" : 0,
					"presentation_rect" : [ 98.335495, 731.442078, 68.0, 89.0 ],
					"id" : "obj-149",
					"fontname" : "Arial",
					"patching_rect" : [ 911.703918, 1048.345093, 68.0, 89.0 ]
				}

			}
, 			{
				"box" : 				{
					"maxclass" : "comment",
					"text" : "C",
					"presentation" : 1,
					"numinlets" : 1,
					"frgb" : [ 1.0, 1.0, 1.0, 1.0 ],
					"textcolor" : [ 1.0, 1.0, 1.0, 1.0 ],
					"fontface" : 1,
					"fontsize" : 72.0,
					"numoutlets" : 0,
					"presentation_rect" : [ 19.335495, 731.442078, 68.0, 89.0 ],
					"id" : "obj-150",
					"fontname" : "Arial",
					"patching_rect" : [ 832.703918, 1048.345093, 68.0, 89.0 ]
				}

			}
, 			{
				"box" : 				{
					"maxclass" : "comment",
					"text" : "type in the name of a chord to see how it's played on a keyboard. Major chords are in caps, minor are in lower case. See the example chords for more info. ",
					"linecount" : 7,
					"presentation_linecount" : 3,
					"presentation" : 1,
					"numinlets" : 1,
					"fontsize" : 12.0,
					"numoutlets" : 0,
					"presentation_rect" : [ 10.874634, 33.868683, 338.0, 48.0 ],
					"id" : "obj-116",
					"fontname" : "Arial",
					"patching_rect" : [ 438.322998, 165.399536, 150.0, 103.0 ]
				}

			}
, 			{
				"box" : 				{
					"maxclass" : "bpatcher",
					"presentation" : 1,
					"numinlets" : 0,
					"name" : "EAMIR_info.maxpat",
					"numoutlets" : 0,
					"args" : [  ],
					"presentation_rect" : [ 1236.874756, 5.868668, 80.0, 109.0 ],
					"id" : "obj-113",
					"patching_rect" : [ 1052.0, 60.0, 80.0, 109.0 ]
				}

			}
, 			{
				"box" : 				{
					"maxclass" : "comment",
					"text" : "Chord Namer",
					"presentation" : 1,
					"numinlets" : 1,
					"frgb" : [ 0.211765, 0.027451, 0.431373, 1.0 ],
					"textcolor" : [ 0.211765, 0.027451, 0.431373, 1.0 ],
					"fontface" : 1,
					"fontsize" : 28.0,
					"numoutlets" : 0,
					"presentation_rect" : [ 12.874634, 7.868683, 207.0, 39.0 ],
					"id" : "obj-114",
					"fontname" : "Arial",
					"patching_rect" : [ 847.0, 125.0, 207.0, 39.0 ]
				}

			}
, 			{
				"box" : 				{
					"maxclass" : "comment",
					"text" : "type a chord here and press enter",
					"linecount" : 2,
					"presentation" : 1,
					"numinlets" : 1,
					"fontsize" : 12.0,
					"numoutlets" : 0,
					"presentation_rect" : [ 19.0, 162.0, 208.0, 20.0 ],
					"id" : "obj-112",
					"fontname" : "Arial",
					"patching_rect" : [ 176.0, 141.0, 150.0, 34.0 ]
				}

			}
, 			{
				"box" : 				{
					"maxclass" : "comment",
					"text" : "MIDI Output",
					"presentation" : 1,
					"numinlets" : 1,
					"fontsize" : 12.0,
					"numoutlets" : 0,
					"presentation_rect" : [ 910.874756, 10.868679, 150.0, 20.0 ],
					"id" : "obj-110",
					"fontname" : "Arial",
					"patching_rect" : [ 242.0, 650.0, 150.0, 20.0 ]
				}

			}
, 			{
				"box" : 				{
					"maxclass" : "comment",
					"text" : "MIDI Input",
					"presentation" : 1,
					"numinlets" : 1,
					"fontsize" : 12.0,
					"numoutlets" : 0,
					"presentation_rect" : [ 380.057129, 25.510159, 150.0, 20.0 ],
					"id" : "obj-109",
					"fontname" : "Arial",
					"patching_rect" : [ 860.16803, 270.0, 150.0, 20.0 ]
				}

			}
, 			{
				"box" : 				{
					"maxclass" : "comment",
					"text" : "release sustain",
					"linecount" : 2,
					"presentation" : 1,
					"numinlets" : 1,
					"fontsize" : 14.0,
					"numoutlets" : 0,
					"presentation_rect" : [ 128.738647, 86.0, 155.0, 23.0 ],
					"id" : "obj-104",
					"fontname" : "Arial",
					"patching_rect" : [ 714.322998, 604.466492, 59.0, 39.0 ]
				}

			}
, 			{
				"box" : 				{
					"maxclass" : "button",
					"presentation" : 1,
					"numinlets" : 1,
					"blinkcolor" : [ 1.0, 0.0, 0.0, 1.0 ],
					"numoutlets" : 1,
					"outlettype" : [ "bang" ],
					"presentation_rect" : [ 108.738647, 86.0, 20.0, 20.0 ],
					"id" : "obj-102",
					"patching_rect" : [ 661.0, 607.0, 20.0, 20.0 ]
				}

			}
, 			{
				"box" : 				{
					"maxclass" : "message",
					"text" : "some chords",
					"presentation_linecount" : 2,
					"presentation" : 1,
					"numinlets" : 2,
					"fontsize" : 12.0,
					"numoutlets" : 1,
					"outlettype" : [ "" ],
					"bgcolor" : [ 1.0, 1.0, 1.0, 1.0 ],
					"presentation_rect" : [ 240.0, 89.0, 47.0, 32.0 ],
					"gradient" : 1,
					"id" : "obj-99",
					"fontname" : "Arial",
					"patching_rect" : [ 37.937366, 49.026539, 80.0, 18.0 ],
					"bgcolor2" : [ 0.580392, 0.168627, 1.0, 1.0 ]
				}

			}
, 			{
				"box" : 				{
					"maxclass" : "newobj",
					"text" : "unpack 0 100",
					"numinlets" : 1,
					"fontsize" : 12.0,
					"numoutlets" : 2,
					"outlettype" : [ "int", "int" ],
					"id" : "obj-95",
					"fontname" : "Arial",
					"patching_rect" : [ 160.0, 610.0, 83.0, 20.0 ]
				}

			}
, 			{
				"box" : 				{
					"maxclass" : "newobj",
					"text" : "pack 0 100",
					"numinlets" : 2,
					"fontsize" : 12.0,
					"numoutlets" : 1,
					"outlettype" : [ "" ],
					"id" : "obj-94",
					"fontname" : "Arial",
					"patching_rect" : [ 160.0, 587.0, 69.0, 20.0 ]
				}

			}
, 			{
				"box" : 				{
					"maxclass" : "newobj",
					"text" : "+ 48",
					"numinlets" : 2,
					"fontsize" : 12.0,
					"numoutlets" : 1,
					"outlettype" : [ "int" ],
					"id" : "obj-93",
					"fontname" : "Arial",
					"patching_rect" : [ 160.0, 561.0, 34.0, 20.0 ]
				}

			}
, 			{
				"box" : 				{
					"maxclass" : "newobj",
					"text" : "r mol_chord",
					"numinlets" : 0,
					"fontsize" : 10.0,
					"numoutlets" : 1,
					"outlettype" : [ "" ],
					"id" : "obj-145",
					"fontname" : "Arial",
					"patching_rect" : [ 101.131584, 344.531097, 63.0, 18.0 ]
				}

			}
, 			{
				"box" : 				{
					"maxclass" : "message",
					"text" : "open",
					"numinlets" : 2,
					"fontsize" : 12.0,
					"numoutlets" : 1,
					"outlettype" : [ "" ],
					"id" : "obj-92",
					"fontname" : "Arial",
					"patching_rect" : [ 37.937366, 72.026535, 37.0, 18.0 ]
				}

			}
, 			{
				"box" : 				{
					"maxclass" : "newobj",
					"text" : "pcontrol",
					"numinlets" : 1,
					"fontsize" : 12.0,
					"numoutlets" : 1,
					"outlettype" : [ "" ],
					"id" : "obj-90",
					"fontname" : "Arial",
					"patching_rect" : [ 37.937366, 95.026535, 53.0, 20.0 ]
				}

			}
, 			{
				"box" : 				{
					"maxclass" : "newobj",
					"text" : "p all_available_chords",
					"numinlets" : 1,
					"fontsize" : 12.0,
					"numoutlets" : 0,
					"id" : "obj-89",
					"fontname" : "Arial",
					"patching_rect" : [ 37.937366, 119.026535, 129.0, 20.0 ],
					"patcher" : 					{
						"fileversion" : 1,
						"rect" : [ 577.0, 374.0, 665.0, 297.0 ],
						"bglocked" : 0,
						"defrect" : [ 577.0, 374.0, 665.0, 297.0 ],
						"openrect" : [ 0.0, 0.0, 0.0, 0.0 ],
						"openinpresentation" : 1,
						"default_fontsize" : 12.0,
						"default_fontface" : 0,
						"default_fontname" : "Arial",
						"gridonopen" : 0,
						"gridsize" : [ 15.0, 15.0 ],
						"gridsnaponopen" : 0,
						"toolbarvisible" : 0,
						"boxanimatetime" : 200,
						"imprint" : 0,
						"enablehscroll" : 1,
						"enablevscroll" : 1,
						"devicewidth" : 0.0,
						"boxes" : [ 							{
								"box" : 								{
									"maxclass" : "umenu",
									"presentation" : 1,
									"numinlets" : 1,
									"textcolor" : [ 0.0, 0.0, 0.0, 1.0 ],
									"fontsize" : 12.0,
									"numoutlets" : 3,
									"items" : [ "vii0/1", ",", "vii0/2", ",", "vii0/3", ",", "vii0/4", ",", "vii0/5", ",", "vii0/6", ",", "vii0/7" ],
									"outlettype" : [ "int", "", "" ],
									"presentation_rect" : [ 457.0, 208.0, 56.0, 20.0 ],
									"labelclick" : 1,
									"id" : "obj-4",
									"fontname" : "Arial",
									"types" : [  ],
									"patching_rect" : [ 272.0, 56.0, 56.0, 20.0 ]
								}

							}
, 							{
								"box" : 								{
									"maxclass" : "newobj",
									"text" : "thispatcher",
									"numinlets" : 1,
									"fontsize" : 12.0,
									"numoutlets" : 2,
									"outlettype" : [ "", "" ],
									"id" : "obj-3",
									"fontname" : "Arial",
									"patching_rect" : [ 172.0, 36.0, 69.0, 20.0 ],
									"save" : [ "#N", "thispatcher", ";", "#Q", "end", ";" ]
								}

							}
, 							{
								"box" : 								{
									"maxclass" : "inlet",
									"numinlets" : 0,
									"numoutlets" : 1,
									"outlettype" : [ "" ],
									"id" : "obj-1",
									"patching_rect" : [ 172.0, 7.0, 25.0, 25.0 ],
									"comment" : ""
								}

							}
, 							{
								"box" : 								{
									"maxclass" : "comment",
									"text" : "Some examples of chords you can use",
									"linecount" : 2,
									"presentation_linecount" : 2,
									"presentation" : 1,
									"numinlets" : 1,
									"fontface" : 1,
									"fontsize" : 16.0,
									"numoutlets" : 0,
									"presentation_rect" : [ 446.0, 7.0, 190.0, 43.0 ],
									"id" : "obj-2",
									"fontname" : "Arial",
									"patching_rect" : [ 5.0, 9.0, 162.0, 43.0 ]
								}

							}
, 							{
								"box" : 								{
									"maxclass" : "comment",
									"text" : "Tonicizations",
									"presentation" : 1,
									"numinlets" : 1,
									"fontsize" : 12.0,
									"numoutlets" : 0,
									"presentation_rect" : [ 449.0, 67.0, 90.0, 20.0 ],
									"id" : "obj-177",
									"fontname" : "Arial",
									"patching_rect" : [ 269.0, 7.0, 90.0, 20.0 ]
								}

							}
, 							{
								"box" : 								{
									"maxclass" : "hint",
									"hint" : "The V Chord Tonicization Chords produce a Dominant 7th chord for each scale degree in the selected mode. That is, the root, 3rd, 5th, and 7th will form a Dominant 7th Chord exactly one perfect 5th above a given scale degree. The 9th, 11th, 13th are inferred according to the selected mode and NOT the mode from which the tonicizing chord prevails.",
									"presentation" : 1,
									"numinlets" : 1,
									"delay" : 1,
									"numoutlets" : 0,
									"presentation_rect" : [ 457.0, 133.0, 51.0, 20.0 ],
									"id" : "obj-162",
									"patching_rect" : [ 271.0, 32.0, 51.0, 20.0 ]
								}

							}
, 							{
								"box" : 								{
									"maxclass" : "newobj",
									"text" : "s mol_chord",
									"hidden" : 1,
									"presentation" : 1,
									"numinlets" : 1,
									"fontsize" : 10.0,
									"numoutlets" : 0,
									"presentation_rect" : [ 461.0, 243.0, 65.0, 18.0 ],
									"id" : "obj-146",
									"fontname" : "Arial",
									"patching_rect" : [ 350.0, 101.0, 65.0, 18.0 ]
								}

							}
, 							{
								"box" : 								{
									"maxclass" : "umenu",
									"presentation" : 1,
									"numinlets" : 1,
									"textcolor" : [ 0.0, 0.0, 0.0, 1.0 ],
									"fontsize" : 12.0,
									"numoutlets" : 3,
									"items" : [ "iv/1", ",", "iv/2", ",", "iv/3", ",", "iv/4", ",", "iv/5", ",", "iv/6", ",", "iv/7" ],
									"outlettype" : [ "int", "", "" ],
									"presentation_rect" : [ 457.0, 170.0, 51.0, 20.0 ],
									"labelclick" : 1,
									"id" : "obj-66",
									"fontname" : "Arial",
									"types" : [  ],
									"patching_rect" : [ 272.0, 79.0, 51.0, 20.0 ]
								}

							}
, 							{
								"box" : 								{
									"maxclass" : "comment",
									"text" : "produces a iv borrowed chord tonicization",
									"linecount" : 3,
									"presentation_linecount" : 4,
									"presentation" : 1,
									"numinlets" : 1,
									"fontsize" : 12.0,
									"numoutlets" : 0,
									"presentation_rect" : [ 526.0, 181.0, 86.0, 62.0 ],
									"id" : "obj-67",
									"fontname" : "Arial",
									"patching_rect" : [ 355.0, 44.0, 104.0, 48.0 ]
								}

							}
, 							{
								"box" : 								{
									"maxclass" : "umenu",
									"presentation" : 1,
									"numinlets" : 1,
									"textcolor" : [ 0.0, 0.0, 0.0, 1.0 ],
									"fontsize" : 12.0,
									"numoutlets" : 3,
									"items" : [ "V/1", ",", "V/2", ",", "V/3", ",", "V/4", ",", "V/5", ",", "V/6", ",", "V/7" ],
									"outlettype" : [ "int", "", "" ],
									"presentation_rect" : [ 457.0, 131.0, 51.0, 20.0 ],
									"labelclick" : 1,
									"id" : "obj-72",
									"fontname" : "Arial",
									"types" : [  ],
									"patching_rect" : [ 271.0, 32.0, 51.0, 20.0 ]
								}

							}
, 							{
								"box" : 								{
									"maxclass" : "umenu",
									"presentation" : 1,
									"numinlets" : 1,
									"textcolor" : [ 0.0, 0.0, 0.0, 1.0 ],
									"fontsize" : 12.0,
									"numoutlets" : 3,
									"items" : [ "7/1", ",", "7/2", ",", "7/3", ",", "7/4", ",", "7/5", ",", "7/6", ",", "7/7" ],
									"outlettype" : [ "int", "", "" ],
									"presentation_rect" : [ 457.0, 96.0, 56.0, 20.0 ],
									"labelclick" : 1,
									"id" : "obj-75",
									"fontname" : "Arial",
									"types" : [  ],
									"patching_rect" : [ 271.0, 101.0, 56.0, 20.0 ]
								}

							}
, 							{
								"box" : 								{
									"maxclass" : "comment",
									"text" : "produces a V7 chord tonicization",
									"linecount" : 2,
									"presentation_linecount" : 3,
									"presentation" : 1,
									"numinlets" : 1,
									"fontsize" : 12.0,
									"numoutlets" : 0,
									"presentation_rect" : [ 520.0, 109.0, 89.0, 48.0 ],
									"id" : "obj-116",
									"fontname" : "Arial",
									"patching_rect" : [ 358.0, 15.0, 102.0, 34.0 ]
								}

							}
, 							{
								"box" : 								{
									"maxclass" : "comment",
									"text" : "Formatting Altered Chords",
									"presentation" : 1,
									"numinlets" : 1,
									"fontsize" : 12.0,
									"numoutlets" : 0,
									"presentation_rect" : [ 201.0, 5.0, 150.0, 20.0 ],
									"id" : "obj-170",
									"fontname" : "Arial",
									"patching_rect" : [ 469.0, 15.0, 150.0, 20.0 ]
								}

							}
, 							{
								"box" : 								{
									"maxclass" : "message",
									"text" : "Cb5#9",
									"presentation" : 1,
									"numinlets" : 2,
									"fontsize" : 12.0,
									"numoutlets" : 1,
									"outlettype" : [ "" ],
									"bgcolor" : [ 1.0, 1.0, 1.0, 1.0 ],
									"presentation_rect" : [ 267.0, 51.0, 46.0, 18.0 ],
									"gradient" : 1,
									"id" : "obj-169",
									"fontname" : "Arial",
									"patching_rect" : [ 535.0, 63.0, 46.0, 18.0 ],
									"bgcolor2" : [ 1.0, 1.0, 1.0, 1.0 ]
								}

							}
, 							{
								"box" : 								{
									"maxclass" : "message",
									"text" : "5#1",
									"presentation" : 1,
									"numinlets" : 2,
									"fontsize" : 12.0,
									"numoutlets" : 1,
									"outlettype" : [ "" ],
									"bgcolor" : [ 1.0, 1.0, 1.0, 1.0 ],
									"presentation_rect" : [ 211.0, 51.0, 32.5, 18.0 ],
									"gradient" : 1,
									"id" : "obj-168",
									"fontname" : "Arial",
									"patching_rect" : [ 479.0, 63.0, 32.5, 18.0 ],
									"bgcolor2" : [ 1.0, 1.0, 1.0, 1.0 ]
								}

							}
, 							{
								"box" : 								{
									"maxclass" : "message",
									"text" : "Gdom7b9#11",
									"presentation" : 1,
									"numinlets" : 2,
									"fontsize" : 12.0,
									"numoutlets" : 1,
									"outlettype" : [ "" ],
									"bgcolor" : [ 1.0, 1.0, 1.0, 1.0 ],
									"presentation_rect" : [ 267.0, 25.0, 82.0, 18.0 ],
									"gradient" : 1,
									"id" : "obj-165",
									"fontname" : "Arial",
									"patching_rect" : [ 535.0, 37.0, 82.0, 18.0 ],
									"bgcolor2" : [ 1.0, 1.0, 1.0, 1.0 ]
								}

							}
, 							{
								"box" : 								{
									"maxclass" : "message",
									"text" : "1b1",
									"presentation" : 1,
									"numinlets" : 2,
									"fontsize" : 12.0,
									"numoutlets" : 1,
									"outlettype" : [ "" ],
									"bgcolor" : [ 1.0, 1.0, 1.0, 1.0 ],
									"presentation_rect" : [ 211.0, 25.0, 32.5, 18.0 ],
									"gradient" : 1,
									"id" : "obj-166",
									"fontname" : "Arial",
									"patching_rect" : [ 479.0, 37.0, 32.5, 18.0 ],
									"bgcolor2" : [ 1.0, 1.0, 1.0, 1.0 ]
								}

							}
, 							{
								"box" : 								{
									"maxclass" : "newobj",
									"text" : "s mol_chord",
									"hidden" : 1,
									"presentation" : 1,
									"numinlets" : 1,
									"fontsize" : 10.0,
									"numoutlets" : 0,
									"presentation_rect" : [ 211.0, 73.0, 65.0, 18.0 ],
									"id" : "obj-164",
									"fontname" : "Arial",
									"patching_rect" : [ 479.0, 85.0, 65.0, 18.0 ]
								}

							}
, 							{
								"box" : 								{
									"maxclass" : "newobj",
									"text" : "s mol_chord",
									"hidden" : 1,
									"presentation" : 1,
									"numinlets" : 1,
									"fontsize" : 10.0,
									"numoutlets" : 0,
									"presentation_rect" : [ 112.0, 276.0, 65.0, 18.0 ],
									"id" : "obj-144",
									"fontname" : "Arial",
									"patching_rect" : [ 564.0, 263.0, 65.0, 18.0 ]
								}

							}
, 							{
								"box" : 								{
									"maxclass" : "umenu",
									"presentation" : 1,
									"numinlets" : 1,
									"textcolor" : [ 0.0, 0.0, 0.0, 1.0 ],
									"fontsize" : 12.0,
									"numoutlets" : 3,
									"items" : [ "c0", ",", "c#0", ",", "d0", ",", "d#0", ",", "e0", ",", "f0", ",", "f#0", ",", "g0", ",", "g#0", ",", "a0", ",", "a#0", ",", "b0", ",", "bb0", ",", "ab0", ",", "gb0", ",", "eb0", ",", "db0" ],
									"outlettype" : [ "int", "", "" ],
									"presentation_rect" : [ 98.0, 259.0, 46.0, 20.0 ],
									"labelclick" : 1,
									"id" : "obj-56",
									"fontname" : "Arial",
									"types" : [  ],
									"patching_rect" : [ 550.0, 246.0, 46.0, 20.0 ]
								}

							}
, 							{
								"box" : 								{
									"maxclass" : "umenu",
									"presentation" : 1,
									"numinlets" : 1,
									"textcolor" : [ 0.0, 0.0, 0.0, 1.0 ],
									"fontsize" : 12.0,
									"numoutlets" : 3,
									"items" : [ "C+", ",", "C#+", ",", "D+", ",", "D#+", ",", "E+", ",", "F+", ",", "F#+", ",", "G+", ",", "G#+", ",", "A+", ",", "A#+", ",", "B+", ",", "Bb+", ",", "Ab+", ",", "Gb+", ",", "Eb+", ",", "Db+" ],
									"outlettype" : [ "int", "", "" ],
									"presentation_rect" : [ 98.0, 236.0, 46.0, 20.0 ],
									"labelclick" : 1,
									"id" : "obj-57",
									"fontname" : "Arial",
									"types" : [  ],
									"patching_rect" : [ 550.0, 223.0, 46.0, 20.0 ]
								}

							}
, 							{
								"box" : 								{
									"maxclass" : "umenu",
									"presentation" : 1,
									"numinlets" : 1,
									"textcolor" : [ 0.0, 0.0, 0.0, 1.0 ],
									"fontsize" : 12.0,
									"numoutlets" : 3,
									"items" : [ "c", ",", "c#", ",", "d", ",", "d#", ",", "e", ",", "f", ",", "f#", ",", "g", ",", "g#", ",", "a", ",", "a#", ",", "b", ",", "bb", ",", "ab", ",", "gb", ",", "eb", ",", "db" ],
									"outlettype" : [ "int", "", "" ],
									"presentation_rect" : [ 98.0, 210.0, 46.0, 20.0 ],
									"labelclick" : 1,
									"id" : "obj-58",
									"fontname" : "Arial",
									"types" : [  ],
									"patching_rect" : [ 550.0, 197.0, 46.0, 20.0 ]
								}

							}
, 							{
								"box" : 								{
									"maxclass" : "umenu",
									"presentation" : 1,
									"numinlets" : 1,
									"textcolor" : [ 0.0, 0.0, 0.0, 1.0 ],
									"fontsize" : 12.0,
									"numoutlets" : 3,
									"items" : [ "C", ",", "C#", ",", "D", ",", "D#", ",", "E", ",", "F", ",", "F#", ",", "G", ",", "G#", ",", "A", ",", "A#", ",", "B", ",", "Bb", ",", "Ab", ",", "Gb", ",", "Eb", ",", "Db" ],
									"outlettype" : [ "int", "", "" ],
									"presentation_rect" : [ 98.0, 186.0, 46.0, 20.0 ],
									"labelclick" : 1,
									"id" : "obj-59",
									"fontname" : "Arial",
									"types" : [  ],
									"patching_rect" : [ 550.0, 173.0, 46.0, 20.0 ]
								}

							}
, 							{
								"box" : 								{
									"maxclass" : "comment",
									"text" : "Case sensitive chord qualities (with pitch letters):",
									"linecount" : 2,
									"presentation_linecount" : 2,
									"presentation" : 1,
									"numinlets" : 1,
									"fontsize" : 12.0,
									"numoutlets" : 0,
									"presentation_rect" : [ 11.0, 154.0, 156.0, 34.0 ],
									"id" : "obj-60",
									"fontname" : "Arial",
									"patching_rect" : [ 463.0, 141.0, 156.0, 34.0 ]
								}

							}
, 							{
								"box" : 								{
									"maxclass" : "comment",
									"text" : "Augmented",
									"presentation" : 1,
									"numinlets" : 1,
									"fontsize" : 12.0,
									"numoutlets" : 0,
									"presentation_rect" : [ 28.0, 259.0, 112.0, 20.0 ],
									"id" : "obj-120",
									"fontname" : "Arial",
									"patching_rect" : [ 480.0, 246.0, 112.0, 20.0 ]
								}

							}
, 							{
								"box" : 								{
									"maxclass" : "comment",
									"text" : "Diminished",
									"presentation" : 1,
									"numinlets" : 1,
									"fontsize" : 12.0,
									"numoutlets" : 0,
									"presentation_rect" : [ 28.0, 238.0, 113.0, 20.0 ],
									"id" : "obj-121",
									"fontname" : "Arial",
									"patching_rect" : [ 480.0, 225.0, 113.0, 20.0 ]
								}

							}
, 							{
								"box" : 								{
									"maxclass" : "comment",
									"text" : "Minor",
									"presentation" : 1,
									"numinlets" : 1,
									"fontsize" : 12.0,
									"numoutlets" : 0,
									"presentation_rect" : [ 59.0, 212.0, 46.0, 20.0 ],
									"id" : "obj-122",
									"fontname" : "Arial",
									"patching_rect" : [ 511.0, 199.0, 46.0, 20.0 ]
								}

							}
, 							{
								"box" : 								{
									"maxclass" : "comment",
									"text" : "Major",
									"presentation" : 1,
									"numinlets" : 1,
									"fontsize" : 12.0,
									"numoutlets" : 0,
									"presentation_rect" : [ 59.0, 189.0, 46.0, 20.0 ],
									"id" : "obj-123",
									"fontname" : "Arial",
									"patching_rect" : [ 511.0, 176.0, 46.0, 20.0 ]
								}

							}
, 							{
								"box" : 								{
									"maxclass" : "newobj",
									"text" : "s mol_chord",
									"hidden" : 1,
									"presentation" : 1,
									"numinlets" : 1,
									"fontsize" : 10.0,
									"numoutlets" : 0,
									"presentation_rect" : [ 116.0, 131.0, 67.0, 18.0 ],
									"id" : "obj-142",
									"fontname" : "Arial",
									"patching_rect" : [ 370.0, 260.0, 67.0, 18.0 ]
								}

							}
, 							{
								"box" : 								{
									"maxclass" : "umenu",
									"presentation" : 1,
									"numinlets" : 1,
									"textcolor" : [ 0.0, 0.0, 0.0, 1.0 ],
									"fontsize" : 12.0,
									"numoutlets" : 3,
									"items" : [ "I+", ",", "II+", ",", "III+", ",", "IV+", ",", "V+", ",", "VI+", ",", "VII+", ",", "VIII+" ],
									"outlettype" : [ "int", "", "" ],
									"presentation_rect" : [ 102.0, 108.0, 46.0, 20.0 ],
									"labelclick" : 1,
									"id" : "obj-61",
									"fontname" : "Arial",
									"types" : [  ],
									"patching_rect" : [ 356.0, 237.0, 46.0, 20.0 ]
								}

							}
, 							{
								"box" : 								{
									"maxclass" : "umenu",
									"presentation" : 1,
									"numinlets" : 1,
									"textcolor" : [ 0.0, 0.0, 0.0, 1.0 ],
									"fontsize" : 12.0,
									"numoutlets" : 3,
									"items" : [ "i0", ",", "ii0", ",", "iii0", ",", "iv0", ",", "v0", ",", "vi0", ",", "vii0", ",", "viii0" ],
									"outlettype" : [ "int", "", "" ],
									"presentation_rect" : [ 102.0, 87.0, 46.0, 20.0 ],
									"labelclick" : 1,
									"id" : "obj-62",
									"fontname" : "Arial",
									"types" : [  ],
									"patching_rect" : [ 356.0, 216.0, 46.0, 20.0 ]
								}

							}
, 							{
								"box" : 								{
									"maxclass" : "umenu",
									"presentation" : 1,
									"numinlets" : 1,
									"textcolor" : [ 0.0, 0.0, 0.0, 1.0 ],
									"fontsize" : 12.0,
									"numoutlets" : 3,
									"items" : [ "i", ",", "ii", ",", "iii", ",", "iv", ",", "v", ",", "vi", ",", "vii", ",", "viii" ],
									"outlettype" : [ "int", "", "" ],
									"presentation_rect" : [ 102.0, 66.0, 46.0, 20.0 ],
									"labelclick" : 1,
									"id" : "obj-63",
									"fontname" : "Arial",
									"types" : [  ],
									"patching_rect" : [ 356.0, 195.0, 46.0, 20.0 ]
								}

							}
, 							{
								"box" : 								{
									"maxclass" : "umenu",
									"presentation" : 1,
									"numinlets" : 1,
									"textcolor" : [ 0.0, 0.0, 0.0, 1.0 ],
									"fontsize" : 12.0,
									"numoutlets" : 3,
									"items" : [ "I", ",", "II", ",", "III", ",", "IV", ",", "V", ",", "VI", ",", "VII", ",", "VIII" ],
									"outlettype" : [ "int", "", "" ],
									"presentation_rect" : [ 102.0, 43.0, 46.0, 20.0 ],
									"labelclick" : 1,
									"id" : "obj-64",
									"fontname" : "Arial",
									"types" : [  ],
									"patching_rect" : [ 356.0, 172.0, 46.0, 20.0 ]
								}

							}
, 							{
								"box" : 								{
									"maxclass" : "comment",
									"text" : "Case sensitive chord qualities (Roman numeral chord functions):",
									"linecount" : 2,
									"presentation_linecount" : 2,
									"presentation" : 1,
									"numinlets" : 1,
									"fontsize" : 12.0,
									"numoutlets" : 0,
									"presentation_rect" : [ 5.0, 10.0, 192.0, 34.0 ],
									"id" : "obj-65",
									"fontname" : "Arial",
									"patching_rect" : [ 259.0, 139.0, 192.0, 34.0 ]
								}

							}
, 							{
								"box" : 								{
									"maxclass" : "comment",
									"text" : "Augmented",
									"presentation" : 1,
									"numinlets" : 1,
									"fontsize" : 12.0,
									"numoutlets" : 0,
									"presentation_rect" : [ 29.0, 111.0, 112.0, 20.0 ],
									"id" : "obj-124",
									"fontname" : "Arial",
									"patching_rect" : [ 283.0, 240.0, 112.0, 20.0 ]
								}

							}
, 							{
								"box" : 								{
									"maxclass" : "comment",
									"text" : "Diminished",
									"presentation" : 1,
									"numinlets" : 1,
									"fontsize" : 12.0,
									"numoutlets" : 0,
									"presentation_rect" : [ 29.0, 90.0, 113.0, 20.0 ],
									"id" : "obj-125",
									"fontname" : "Arial",
									"patching_rect" : [ 283.0, 219.0, 113.0, 20.0 ]
								}

							}
, 							{
								"box" : 								{
									"maxclass" : "comment",
									"text" : "Minor",
									"presentation" : 1,
									"numinlets" : 1,
									"fontsize" : 12.0,
									"numoutlets" : 0,
									"presentation_rect" : [ 64.0, 68.0, 111.0, 20.0 ],
									"id" : "obj-126",
									"fontname" : "Arial",
									"patching_rect" : [ 318.0, 197.0, 111.0, 20.0 ]
								}

							}
, 							{
								"box" : 								{
									"maxclass" : "comment",
									"text" : "Major",
									"presentation" : 1,
									"numinlets" : 1,
									"fontsize" : 12.0,
									"numoutlets" : 0,
									"presentation_rect" : [ 64.0, 45.0, 111.0, 20.0 ],
									"id" : "obj-127",
									"fontname" : "Arial",
									"patching_rect" : [ 318.0, 174.0, 111.0, 20.0 ]
								}

							}
, 							{
								"box" : 								{
									"maxclass" : "newobj",
									"text" : "s mol_chord",
									"hidden" : 1,
									"presentation" : 1,
									"numinlets" : 1,
									"fontsize" : 10.0,
									"numoutlets" : 0,
									"presentation_rect" : [ 204.0, 259.0, 65.0, 18.0 ],
									"id" : "obj-141",
									"fontname" : "Arial",
									"patching_rect" : [ 16.0, 233.0, 65.0, 18.0 ]
								}

							}
, 							{
								"box" : 								{
									"maxclass" : "comment",
									"text" : "builds a French Sixth chord (in root position) or tonicize another chord with an N 6th",
									"linecount" : 3,
									"presentation_linecount" : 3,
									"presentation" : 1,
									"numinlets" : 1,
									"fontsize" : 12.0,
									"numoutlets" : 0,
									"presentation_rect" : [ 264.0, 238.0, 157.0, 48.0 ],
									"id" : "obj-16",
									"fontname" : "Arial",
									"patching_rect" : [ 76.0, 212.0, 157.0, 48.0 ]
								}

							}
, 							{
								"box" : 								{
									"maxclass" : "umenu",
									"presentation" : 1,
									"numinlets" : 1,
									"textcolor" : [ 0.0, 0.0, 0.0, 1.0 ],
									"fontsize" : 12.0,
									"numoutlets" : 3,
									"items" : [ "Fr6", ",", "Fr6/2", ",", "Fr6/3", ",", "Fr6/4", ",", "Fr6/5", ",", "Fr6/6", ",", "Fr6/7", ",", "Fr6/8" ],
									"outlettype" : [ "int", "", "" ],
									"presentation_rect" : [ 206.0, 246.0, 57.0, 20.0 ],
									"labelclick" : 1,
									"id" : "obj-17",
									"fontname" : "Arial",
									"types" : [  ],
									"patching_rect" : [ 18.0, 220.0, 57.0, 20.0 ]
								}

							}
, 							{
								"box" : 								{
									"maxclass" : "comment",
									"text" : "builds a German Sixth chord (in root position) or tonicize another chord with an N 6th",
									"linecount" : 3,
									"presentation_linecount" : 3,
									"presentation" : 1,
									"numinlets" : 1,
									"fontsize" : 12.0,
									"numoutlets" : 0,
									"presentation_rect" : [ 264.0, 187.0, 174.0, 48.0 ],
									"id" : "obj-18",
									"fontname" : "Arial",
									"patching_rect" : [ 76.0, 161.0, 174.0, 48.0 ]
								}

							}
, 							{
								"box" : 								{
									"maxclass" : "comment",
									"text" : "builds an Italian Sixth chord (in root position) or tonicize another chord with an N 6th",
									"linecount" : 3,
									"presentation_linecount" : 3,
									"presentation" : 1,
									"numinlets" : 1,
									"fontsize" : 12.0,
									"numoutlets" : 0,
									"presentation_rect" : [ 264.0, 138.0, 170.0, 48.0 ],
									"id" : "obj-19",
									"fontname" : "Arial",
									"patching_rect" : [ 76.0, 112.0, 170.0, 48.0 ]
								}

							}
, 							{
								"box" : 								{
									"maxclass" : "umenu",
									"presentation" : 1,
									"numinlets" : 1,
									"textcolor" : [ 0.0, 0.0, 0.0, 1.0 ],
									"fontsize" : 12.0,
									"numoutlets" : 3,
									"items" : [ "Gr6", ",", "Gr6/2", ",", "Gr6/3", ",", "Gr6/4", ",", "Gr6/5", ",", "Gr6/6", ",", "Gr6/7", ",", "Gr6/8" ],
									"outlettype" : [ "int", "", "" ],
									"presentation_rect" : [ 206.0, 197.0, 57.0, 20.0 ],
									"labelclick" : 1,
									"id" : "obj-20",
									"fontname" : "Arial",
									"types" : [  ],
									"patching_rect" : [ 18.0, 171.0, 57.0, 20.0 ]
								}

							}
, 							{
								"box" : 								{
									"maxclass" : "umenu",
									"presentation" : 1,
									"numinlets" : 1,
									"textcolor" : [ 0.0, 0.0, 0.0, 1.0 ],
									"fontsize" : 12.0,
									"numoutlets" : 3,
									"items" : [ "It6", ",", "It6/2", ",", "It6/3", ",", "It6/4", ",", "It6/5", ",", "It6/6", ",", "It6/7", ",", "It6/8" ],
									"outlettype" : [ "int", "", "" ],
									"presentation_rect" : [ 206.0, 145.0, 57.0, 20.0 ],
									"labelclick" : 1,
									"id" : "obj-43",
									"fontname" : "Arial",
									"types" : [  ],
									"patching_rect" : [ 18.0, 119.0, 57.0, 20.0 ]
								}

							}
, 							{
								"box" : 								{
									"maxclass" : "comment",
									"text" : "builds a Neopolitan Sixth chord (in root position) or tonicize another chord with an N 6th",
									"linecount" : 3,
									"presentation_linecount" : 3,
									"presentation" : 1,
									"numinlets" : 1,
									"fontsize" : 12.0,
									"numoutlets" : 0,
									"presentation_rect" : [ 264.0, 89.0, 179.0, 48.0 ],
									"id" : "obj-44",
									"fontname" : "Arial",
									"patching_rect" : [ 76.0, 63.0, 179.0, 48.0 ]
								}

							}
, 							{
								"box" : 								{
									"maxclass" : "umenu",
									"presentation" : 1,
									"numinlets" : 1,
									"textcolor" : [ 0.0, 0.0, 0.0, 1.0 ],
									"fontsize" : 12.0,
									"numoutlets" : 3,
									"items" : [ "N6", ",", "N6/2", ",", "N6/3", ",", "N6/4", ",", "N6/5", ",", "N6/6", ",", "N6/7", ",", "N6/8" ],
									"outlettype" : [ "int", "", "" ],
									"presentation_rect" : [ 206.0, 100.0, 57.0, 20.0 ],
									"labelclick" : 1,
									"id" : "obj-45",
									"fontname" : "Arial",
									"types" : [  ],
									"patching_rect" : [ 18.0, 74.0, 57.0, 20.0 ]
								}

							}
, 							{
								"box" : 								{
									"maxclass" : "panel",
									"presentation" : 1,
									"numinlets" : 1,
									"rounded" : 30,
									"mode" : 1,
									"numoutlets" : 0,
									"angle" : 1.16,
									"bgcolor" : [ 0.937255, 0.956863, 1.0, 1.0 ],
									"presentation_rect" : [ 196.0, 4.0, 243.0, 74.0 ],
									"grad1" : [ 0.894118, 0.917647, 1.0, 1.0 ],
									"id" : "obj-137",
									"patching_rect" : [ 464.0, 13.0, 163.0, 77.0 ]
								}

							}
, 							{
								"box" : 								{
									"maxclass" : "panel",
									"presentation" : 1,
									"numinlets" : 1,
									"rounded" : 30,
									"mode" : 1,
									"numoutlets" : 0,
									"angle" : 1.16,
									"bgcolor" : [ 0.937255, 0.956863, 1.0, 1.0 ],
									"presentation_rect" : [ 6.0, 147.0, 185.0, 141.0 ],
									"grad1" : [ 0.894118, 0.917647, 1.0, 1.0 ],
									"id" : "obj-172",
									"patching_rect" : [ 458.0, 134.0, 167.0, 141.0 ]
								}

							}
, 							{
								"box" : 								{
									"maxclass" : "panel",
									"presentation" : 1,
									"numinlets" : 1,
									"rounded" : 30,
									"mode" : 1,
									"numoutlets" : 0,
									"angle" : 1.16,
									"bgcolor" : [ 0.937255, 0.956863, 1.0, 1.0 ],
									"presentation_rect" : [ 5.0, 5.0, 187.0, 139.0 ],
									"grad1" : [ 0.894118, 0.917647, 1.0, 1.0 ],
									"id" : "obj-173",
									"patching_rect" : [ 259.0, 134.0, 187.0, 139.0 ]
								}

							}
, 							{
								"box" : 								{
									"maxclass" : "panel",
									"presentation" : 1,
									"numinlets" : 1,
									"rounded" : 30,
									"mode" : 1,
									"numoutlets" : 0,
									"angle" : 1.16,
									"bgcolor" : [ 0.937255, 0.956863, 1.0, 1.0 ],
									"presentation_rect" : [ 197.0, 82.0, 243.0, 209.0 ],
									"grad1" : [ 0.894118, 0.917647, 1.0, 1.0 ],
									"id" : "obj-174",
									"patching_rect" : [ 9.0, 56.0, 243.0, 209.0 ]
								}

							}
, 							{
								"box" : 								{
									"maxclass" : "panel",
									"presentation" : 1,
									"numinlets" : 1,
									"rounded" : 30,
									"mode" : 1,
									"numoutlets" : 0,
									"angle" : 1.16,
									"bgcolor" : [ 0.937255, 0.956863, 1.0, 1.0 ],
									"presentation_rect" : [ 443.0, 52.0, 218.0, 237.0 ],
									"grad1" : [ 0.894118, 0.917647, 1.0, 1.0 ],
									"id" : "obj-175",
									"patching_rect" : [ 266.0, 5.0, 194.0, 120.0 ]
								}

							}
 ],
						"lines" : [ 							{
								"patchline" : 								{
									"source" : [ "obj-4", 1 ],
									"destination" : [ "obj-146", 0 ],
									"hidden" : 0,
									"midpoints" : [  ]
								}

							}
, 							{
								"patchline" : 								{
									"source" : [ "obj-66", 1 ],
									"destination" : [ "obj-146", 0 ],
									"hidden" : 1,
									"midpoints" : [  ]
								}

							}
, 							{
								"patchline" : 								{
									"source" : [ "obj-72", 1 ],
									"destination" : [ "obj-146", 0 ],
									"hidden" : 1,
									"midpoints" : [  ]
								}

							}
, 							{
								"patchline" : 								{
									"source" : [ "obj-75", 1 ],
									"destination" : [ "obj-146", 0 ],
									"hidden" : 1,
									"midpoints" : [  ]
								}

							}
, 							{
								"patchline" : 								{
									"source" : [ "obj-169", 0 ],
									"destination" : [ "obj-164", 0 ],
									"hidden" : 1,
									"midpoints" : [  ]
								}

							}
, 							{
								"patchline" : 								{
									"source" : [ "obj-168", 0 ],
									"destination" : [ "obj-164", 0 ],
									"hidden" : 1,
									"midpoints" : [  ]
								}

							}
, 							{
								"patchline" : 								{
									"source" : [ "obj-166", 0 ],
									"destination" : [ "obj-164", 0 ],
									"hidden" : 1,
									"midpoints" : [  ]
								}

							}
, 							{
								"patchline" : 								{
									"source" : [ "obj-165", 0 ],
									"destination" : [ "obj-164", 0 ],
									"hidden" : 1,
									"midpoints" : [  ]
								}

							}
, 							{
								"patchline" : 								{
									"source" : [ "obj-56", 1 ],
									"destination" : [ "obj-144", 0 ],
									"hidden" : 1,
									"midpoints" : [  ]
								}

							}
, 							{
								"patchline" : 								{
									"source" : [ "obj-57", 1 ],
									"destination" : [ "obj-144", 0 ],
									"hidden" : 1,
									"midpoints" : [  ]
								}

							}
, 							{
								"patchline" : 								{
									"source" : [ "obj-59", 1 ],
									"destination" : [ "obj-144", 0 ],
									"hidden" : 1,
									"midpoints" : [  ]
								}

							}
, 							{
								"patchline" : 								{
									"source" : [ "obj-58", 1 ],
									"destination" : [ "obj-144", 0 ],
									"hidden" : 1,
									"midpoints" : [  ]
								}

							}
, 							{
								"patchline" : 								{
									"source" : [ "obj-64", 1 ],
									"destination" : [ "obj-142", 0 ],
									"hidden" : 1,
									"midpoints" : [  ]
								}

							}
, 							{
								"patchline" : 								{
									"source" : [ "obj-63", 1 ],
									"destination" : [ "obj-142", 0 ],
									"hidden" : 1,
									"midpoints" : [  ]
								}

							}
, 							{
								"patchline" : 								{
									"source" : [ "obj-62", 1 ],
									"destination" : [ "obj-142", 0 ],
									"hidden" : 1,
									"midpoints" : [  ]
								}

							}
, 							{
								"patchline" : 								{
									"source" : [ "obj-61", 1 ],
									"destination" : [ "obj-142", 0 ],
									"hidden" : 1,
									"midpoints" : [  ]
								}

							}
, 							{
								"patchline" : 								{
									"source" : [ "obj-17", 1 ],
									"destination" : [ "obj-141", 0 ],
									"hidden" : 1,
									"midpoints" : [  ]
								}

							}
, 							{
								"patchline" : 								{
									"source" : [ "obj-20", 1 ],
									"destination" : [ "obj-141", 0 ],
									"hidden" : 1,
									"midpoints" : [  ]
								}

							}
, 							{
								"patchline" : 								{
									"source" : [ "obj-43", 1 ],
									"destination" : [ "obj-141", 0 ],
									"hidden" : 1,
									"midpoints" : [  ]
								}

							}
, 							{
								"patchline" : 								{
									"source" : [ "obj-45", 1 ],
									"destination" : [ "obj-141", 0 ],
									"hidden" : 1,
									"midpoints" : [  ]
								}

							}
, 							{
								"patchline" : 								{
									"source" : [ "obj-1", 0 ],
									"destination" : [ "obj-3", 0 ],
									"hidden" : 0,
									"midpoints" : [  ]
								}

							}
 ]
					}
,
					"saved_object_attributes" : 					{
						"default_fontname" : "Arial",
						"globalpatchername" : "",
						"default_fontsize" : 12.0,
						"fontface" : 0,
						"fontsize" : 12.0,
						"default_fontface" : 0,
						"fontname" : "Arial"
					}

				}

			}
, 			{
				"box" : 				{
					"maxclass" : "comment",
					"text" : "If your chord requires added tones like a 7th or a 9th, check the box to add it to the chord. ",
					"linecount" : 4,
					"numinlets" : 1,
					"fontsize" : 12.0,
					"numoutlets" : 0,
					"id" : "obj-87",
					"fontname" : "Arial",
					"patching_rect" : [ 681.031128, 477.200958, 136.0, 62.0 ]
				}

			}
, 			{
				"box" : 				{
					"maxclass" : "newobj",
					"text" : "route text",
					"numinlets" : 1,
					"fontsize" : 12.0,
					"numoutlets" : 2,
					"outlettype" : [ "", "" ],
					"id" : "obj-85",
					"fontname" : "Arial",
					"patching_rect" : [ 40.0, 250.0, 61.0, 20.0 ]
				}

			}
, 			{
				"box" : 				{
					"maxclass" : "textedit",
					"presentation" : 1,
					"lines" : 1,
					"numinlets" : 1,
					"clickmode" : 1,
					"wordwrap" : 0,
					"fontsize" : 36.0,
					"numoutlets" : 4,
					"keymode" : 1,
					"outlettype" : [ "", "int", "", "" ],
					"presentation_rect" : [ 13.0, 112.0, 229.0, 55.0 ],
					"id" : "obj-173",
					"fontname" : "Geneva",
					"patching_rect" : [ 40.0, 184.0, 201.0, 54.0 ]
				}

			}
, 			{
				"box" : 				{
					"maxclass" : "message",
					"text" : "1",
					"numinlets" : 2,
					"fontsize" : 12.0,
					"numoutlets" : 1,
					"outlettype" : [ "" ],
					"id" : "obj-80",
					"fontname" : "Arial",
					"patching_rect" : [ 563.0, 555.0, 32.5, 18.0 ]
				}

			}
, 			{
				"box" : 				{
					"maxclass" : "comment",
					"text" : "or",
					"numinlets" : 1,
					"fontface" : 1,
					"fontsize" : 30.0,
					"numoutlets" : 0,
					"id" : "obj-51",
					"fontname" : "Arial",
					"patching_rect" : [ 2417.167969, 569.0, 86.0, 41.0 ]
				}

			}
, 			{
				"box" : 				{
					"maxclass" : "comment",
					"text" : "A#\n\nBb",
					"linecount" : 3,
					"numinlets" : 1,
					"fontface" : 1,
					"fontsize" : 44.0,
					"numoutlets" : 0,
					"id" : "obj-52",
					"fontname" : "Arial",
					"patching_rect" : [ 2412.167969, 507.0, 116.0, 158.0 ]
				}

			}
, 			{
				"box" : 				{
					"maxclass" : "comment",
					"text" : "or",
					"numinlets" : 1,
					"fontface" : 1,
					"fontsize" : 30.0,
					"numoutlets" : 0,
					"id" : "obj-53",
					"fontname" : "Arial",
					"patching_rect" : [ 2335.167969, 569.0, 86.0, 41.0 ]
				}

			}
, 			{
				"box" : 				{
					"maxclass" : "comment",
					"text" : "G#\n\nAb",
					"linecount" : 3,
					"numinlets" : 1,
					"fontface" : 1,
					"fontsize" : 44.0,
					"numoutlets" : 0,
					"id" : "obj-56",
					"fontname" : "Arial",
					"patching_rect" : [ 2330.167969, 507.0, 117.0, 158.0 ]
				}

			}
, 			{
				"box" : 				{
					"maxclass" : "comment",
					"text" : "or",
					"numinlets" : 1,
					"fontface" : 1,
					"fontsize" : 30.0,
					"numoutlets" : 0,
					"id" : "obj-57",
					"fontname" : "Arial",
					"patching_rect" : [ 2253.167969, 569.0, 86.0, 41.0 ]
				}

			}
, 			{
				"box" : 				{
					"maxclass" : "comment",
					"text" : "F#\n\nGb",
					"linecount" : 3,
					"numinlets" : 1,
					"fontface" : 1,
					"fontsize" : 44.0,
					"numoutlets" : 0,
					"id" : "obj-59",
					"fontname" : "Arial",
					"patching_rect" : [ 2248.167969, 507.0, 116.0, 158.0 ]
				}

			}
, 			{
				"box" : 				{
					"maxclass" : "comment",
					"text" : "or",
					"presentation" : 1,
					"numinlets" : 1,
					"fontface" : 1,
					"fontsize" : 30.0,
					"numoutlets" : 0,
					"presentation_rect" : [ 1277.0, 247.0, 86.0, 41.0 ],
					"id" : "obj-61",
					"fontname" : "Arial",
					"patching_rect" : [ 2092.167969, 569.0, 86.0, 41.0 ]
				}

			}
, 			{
				"box" : 				{
					"maxclass" : "comment",
					"text" : "D#\n\nEb",
					"linecount" : 3,
					"presentation_linecount" : 3,
					"presentation" : 1,
					"numinlets" : 1,
					"fontface" : 1,
					"fontsize" : 45.0,
					"numoutlets" : 0,
					"presentation_rect" : [ 1272.0, 185.0, 119.0, 162.0 ],
					"id" : "obj-62",
					"fontname" : "Arial",
					"patching_rect" : [ 2087.167969, 507.0, 119.0, 162.0 ]
				}

			}
, 			{
				"box" : 				{
					"maxclass" : "comment",
					"text" : "or",
					"presentation" : 1,
					"numinlets" : 1,
					"fontface" : 1,
					"fontsize" : 30.0,
					"numoutlets" : 0,
					"presentation_rect" : [ 1195.0, 247.0, 86.0, 41.0 ],
					"id" : "obj-63",
					"fontname" : "Arial",
					"patching_rect" : [ 2010.167969, 569.0, 86.0, 41.0 ]
				}

			}
, 			{
				"box" : 				{
					"maxclass" : "comment",
					"text" : "C#\n\nDb",
					"linecount" : 3,
					"presentation_linecount" : 3,
					"presentation" : 1,
					"numinlets" : 1,
					"fontface" : 1,
					"fontsize" : 45.0,
					"numoutlets" : 0,
					"presentation_rect" : [ 1190.0, 185.0, 119.0, 162.0 ],
					"id" : "obj-64",
					"fontname" : "Arial",
					"patching_rect" : [ 2005.167969, 507.0, 119.0, 162.0 ]
				}

			}
, 			{
				"box" : 				{
					"maxclass" : "comment",
					"text" : "B",
					"numinlets" : 1,
					"frgb" : [ 1.0, 1.0, 1.0, 1.0 ],
					"textcolor" : [ 1.0, 1.0, 1.0, 1.0 ],
					"fontface" : 1,
					"fontsize" : 72.0,
					"numoutlets" : 0,
					"id" : "obj-72",
					"fontname" : "Arial",
					"patching_rect" : [ 2453.167969, 728.0, 68.0, 89.0 ]
				}

			}
, 			{
				"box" : 				{
					"maxclass" : "comment",
					"text" : "A",
					"numinlets" : 1,
					"frgb" : [ 1.0, 1.0, 1.0, 1.0 ],
					"textcolor" : [ 1.0, 1.0, 1.0, 1.0 ],
					"fontface" : 1,
					"fontsize" : 72.0,
					"numoutlets" : 0,
					"id" : "obj-73",
					"fontname" : "Arial",
					"patching_rect" : [ 2371.167969, 728.0, 68.0, 89.0 ]
				}

			}
, 			{
				"box" : 				{
					"maxclass" : "comment",
					"text" : "G",
					"numinlets" : 1,
					"frgb" : [ 1.0, 1.0, 1.0, 1.0 ],
					"textcolor" : [ 1.0, 1.0, 1.0, 1.0 ],
					"fontface" : 1,
					"fontsize" : 72.0,
					"numoutlets" : 0,
					"id" : "obj-74",
					"fontname" : "Arial",
					"patching_rect" : [ 2289.167969, 728.0, 68.0, 89.0 ]
				}

			}
, 			{
				"box" : 				{
					"maxclass" : "comment",
					"text" : "F",
					"numinlets" : 1,
					"frgb" : [ 1.0, 1.0, 1.0, 1.0 ],
					"textcolor" : [ 1.0, 1.0, 1.0, 1.0 ],
					"fontface" : 1,
					"fontsize" : 72.0,
					"numoutlets" : 0,
					"id" : "obj-75",
					"fontname" : "Arial",
					"patching_rect" : [ 2209.167969, 728.0, 68.0, 89.0 ]
				}

			}
, 			{
				"box" : 				{
					"maxclass" : "comment",
					"text" : "E",
					"presentation" : 1,
					"numinlets" : 1,
					"frgb" : [ 1.0, 1.0, 1.0, 1.0 ],
					"textcolor" : [ 1.0, 1.0, 1.0, 1.0 ],
					"fontface" : 1,
					"fontsize" : 72.0,
					"numoutlets" : 0,
					"presentation_rect" : [ 1312.0, 406.0, 68.0, 89.0 ],
					"id" : "obj-76",
					"fontname" : "Arial",
					"patching_rect" : [ 2127.167969, 728.0, 68.0, 89.0 ]
				}

			}
, 			{
				"box" : 				{
					"maxclass" : "comment",
					"text" : "D",
					"presentation" : 1,
					"numinlets" : 1,
					"frgb" : [ 1.0, 1.0, 1.0, 1.0 ],
					"textcolor" : [ 1.0, 1.0, 1.0, 1.0 ],
					"fontface" : 1,
					"fontsize" : 72.0,
					"numoutlets" : 0,
					"presentation_rect" : [ 1231.0, 406.0, 68.0, 89.0 ],
					"id" : "obj-77",
					"fontname" : "Arial",
					"patching_rect" : [ 2046.167969, 728.0, 68.0, 89.0 ]
				}

			}
, 			{
				"box" : 				{
					"maxclass" : "comment",
					"text" : "C",
					"presentation" : 1,
					"numinlets" : 1,
					"frgb" : [ 1.0, 1.0, 1.0, 1.0 ],
					"textcolor" : [ 1.0, 1.0, 1.0, 1.0 ],
					"fontface" : 1,
					"fontsize" : 72.0,
					"numoutlets" : 0,
					"presentation_rect" : [ 1152.0, 406.0, 68.0, 89.0 ],
					"id" : "obj-78",
					"fontname" : "Arial",
					"patching_rect" : [ 1967.167969, 728.0, 68.0, 89.0 ]
				}

			}
, 			{
				"box" : 				{
					"maxclass" : "newobj",
					"text" : "t s clear",
					"numinlets" : 1,
					"fontsize" : 12.0,
					"numoutlets" : 2,
					"outlettype" : [ "", "clear" ],
					"id" : "obj-60",
					"fontname" : "Arial",
					"patching_rect" : [ 160.0, 377.0, 53.0, 20.0 ]
				}

			}
, 			{
				"box" : 				{
					"maxclass" : "newobj",
					"text" : "+ 0",
					"numinlets" : 2,
					"fontsize" : 12.0,
					"numoutlets" : 1,
					"outlettype" : [ "int" ],
					"id" : "obj-55",
					"fontname" : "Arial",
					"patching_rect" : [ 232.257889, 561.822388, 32.5, 20.0 ]
				}

			}
, 			{
				"box" : 				{
					"maxclass" : "bpatcher",
					"varname" : "EAMIR_MIDI_out",
					"presentation" : 1,
					"numinlets" : 5,
					"name" : "EAMIR_MIDI_out.maxpat",
					"numoutlets" : 0,
					"args" : [  ],
					"presentation_rect" : [ 827.874756, 6.868679, 488.0, 177.0 ],
					"id" : "obj-42",
					"patching_rect" : [ 160.0, 647.0, 488.0, 177.0 ]
				}

			}
, 			{
				"box" : 				{
					"maxclass" : "bpatcher",
					"varname" : "EAMIR_MIDI_in",
					"presentation" : 1,
					"numinlets" : 0,
					"name" : "EAMIR_MIDI_in.maxpat",
					"numoutlets" : 6,
					"args" : [  ],
					"outlettype" : [ "int", "int", "int", "", "int", "int" ],
					"presentation_rect" : [ 274.057129, 6.51016, 427.0, 63.0 ],
					"id" : "obj-2",
					"patching_rect" : [ 825.16803, 261.0, 427.0, 64.0 ]
				}

			}
, 			{
				"box" : 				{
					"maxclass" : "comment",
					"text" : "or",
					"presentation" : 1,
					"numinlets" : 1,
					"fontface" : 1,
					"fontsize" : 30.0,
					"numoutlets" : 0,
					"presentation_rect" : [ 1036.0, 246.0, 86.0, 41.0 ],
					"id" : "obj-29",
					"fontname" : "Arial",
					"patching_rect" : [ 1851.167969, 568.0, 86.0, 41.0 ]
				}

			}
, 			{
				"box" : 				{
					"maxclass" : "comment",
					"text" : "A#\n\nBb",
					"linecount" : 3,
					"presentation_linecount" : 3,
					"presentation" : 1,
					"numinlets" : 1,
					"fontface" : 1,
					"fontsize" : 44.0,
					"numoutlets" : 0,
					"presentation_rect" : [ 1031.0, 184.0, 116.0, 158.0 ],
					"id" : "obj-30",
					"fontname" : "Arial",
					"patching_rect" : [ 1846.167969, 506.0, 116.0, 158.0 ]
				}

			}
, 			{
				"box" : 				{
					"maxclass" : "comment",
					"text" : "or",
					"presentation" : 1,
					"numinlets" : 1,
					"fontface" : 1,
					"fontsize" : 30.0,
					"numoutlets" : 0,
					"presentation_rect" : [ 954.0, 246.0, 86.0, 41.0 ],
					"id" : "obj-31",
					"fontname" : "Arial",
					"patching_rect" : [ 1769.167969, 568.0, 86.0, 41.0 ]
				}

			}
, 			{
				"box" : 				{
					"maxclass" : "comment",
					"text" : "G#\n\nAb",
					"linecount" : 3,
					"presentation_linecount" : 3,
					"presentation" : 1,
					"numinlets" : 1,
					"fontface" : 1,
					"fontsize" : 44.0,
					"numoutlets" : 0,
					"presentation_rect" : [ 949.0, 184.0, 117.0, 158.0 ],
					"id" : "obj-32",
					"fontname" : "Arial",
					"patching_rect" : [ 1764.167969, 506.0, 117.0, 158.0 ]
				}

			}
, 			{
				"box" : 				{
					"maxclass" : "comment",
					"text" : "or",
					"presentation" : 1,
					"numinlets" : 1,
					"fontface" : 1,
					"fontsize" : 30.0,
					"numoutlets" : 0,
					"presentation_rect" : [ 872.0, 246.0, 86.0, 41.0 ],
					"id" : "obj-33",
					"fontname" : "Arial",
					"patching_rect" : [ 1687.167969, 568.0, 86.0, 41.0 ]
				}

			}
, 			{
				"box" : 				{
					"maxclass" : "comment",
					"text" : "F#\n\nGb",
					"linecount" : 3,
					"presentation_linecount" : 3,
					"presentation" : 1,
					"numinlets" : 1,
					"fontface" : 1,
					"fontsize" : 44.0,
					"numoutlets" : 0,
					"presentation_rect" : [ 867.0, 184.0, 116.0, 158.0 ],
					"id" : "obj-34",
					"fontname" : "Arial",
					"patching_rect" : [ 1682.167969, 506.0, 116.0, 158.0 ]
				}

			}
, 			{
				"box" : 				{
					"maxclass" : "comment",
					"text" : "or",
					"presentation" : 1,
					"numinlets" : 1,
					"fontface" : 1,
					"fontsize" : 30.0,
					"numoutlets" : 0,
					"presentation_rect" : [ 711.0, 246.0, 86.0, 41.0 ],
					"id" : "obj-35",
					"fontname" : "Arial",
					"patching_rect" : [ 1526.167969, 568.0, 86.0, 41.0 ]
				}

			}
, 			{
				"box" : 				{
					"maxclass" : "comment",
					"text" : "D#\n\nEb",
					"linecount" : 3,
					"presentation_linecount" : 3,
					"presentation" : 1,
					"numinlets" : 1,
					"fontface" : 1,
					"fontsize" : 45.0,
					"numoutlets" : 0,
					"presentation_rect" : [ 706.0, 184.0, 119.0, 162.0 ],
					"id" : "obj-36",
					"fontname" : "Arial",
					"patching_rect" : [ 1521.167969, 506.0, 119.0, 162.0 ]
				}

			}
, 			{
				"box" : 				{
					"maxclass" : "comment",
					"text" : "or",
					"presentation" : 1,
					"numinlets" : 1,
					"fontface" : 1,
					"fontsize" : 30.0,
					"numoutlets" : 0,
					"presentation_rect" : [ 629.0, 246.0, 86.0, 41.0 ],
					"id" : "obj-37",
					"fontname" : "Arial",
					"patching_rect" : [ 1444.167969, 568.0, 86.0, 41.0 ]
				}

			}
, 			{
				"box" : 				{
					"maxclass" : "comment",
					"text" : "C#\n\nDb",
					"linecount" : 3,
					"presentation_linecount" : 3,
					"presentation" : 1,
					"numinlets" : 1,
					"fontface" : 1,
					"fontsize" : 45.0,
					"numoutlets" : 0,
					"presentation_rect" : [ 624.0, 184.0, 119.0, 162.0 ],
					"id" : "obj-38",
					"fontname" : "Arial",
					"patching_rect" : [ 1439.167969, 506.0, 119.0, 162.0 ]
				}

			}
, 			{
				"box" : 				{
					"maxclass" : "comment",
					"text" : "or",
					"presentation" : 1,
					"numinlets" : 1,
					"fontface" : 1,
					"fontsize" : 30.0,
					"numoutlets" : 0,
					"presentation_rect" : [ 469.0, 247.0, 86.0, 41.0 ],
					"id" : "obj-27",
					"fontname" : "Arial",
					"patching_rect" : [ 1284.167969, 569.0, 86.0, 41.0 ]
				}

			}
, 			{
				"box" : 				{
					"maxclass" : "comment",
					"text" : "A#\n\nBb",
					"linecount" : 3,
					"presentation_linecount" : 3,
					"presentation" : 1,
					"numinlets" : 1,
					"fontface" : 1,
					"fontsize" : 44.0,
					"numoutlets" : 0,
					"presentation_rect" : [ 464.0, 185.0, 116.0, 158.0 ],
					"id" : "obj-28",
					"fontname" : "Arial",
					"patching_rect" : [ 1279.167969, 507.0, 116.0, 158.0 ]
				}

			}
, 			{
				"box" : 				{
					"maxclass" : "comment",
					"text" : "or",
					"presentation" : 1,
					"numinlets" : 1,
					"fontface" : 1,
					"fontsize" : 30.0,
					"numoutlets" : 0,
					"presentation_rect" : [ 387.0, 247.0, 86.0, 41.0 ],
					"id" : "obj-21",
					"fontname" : "Arial",
					"patching_rect" : [ 1202.167969, 569.0, 86.0, 41.0 ]
				}

			}
, 			{
				"box" : 				{
					"maxclass" : "comment",
					"text" : "G#\n\nAb",
					"linecount" : 3,
					"presentation_linecount" : 3,
					"presentation" : 1,
					"numinlets" : 1,
					"fontface" : 1,
					"fontsize" : 44.0,
					"numoutlets" : 0,
					"presentation_rect" : [ 382.0, 185.0, 117.0, 158.0 ],
					"id" : "obj-22",
					"fontname" : "Arial",
					"patching_rect" : [ 1197.167969, 507.0, 117.0, 158.0 ]
				}

			}
, 			{
				"box" : 				{
					"maxclass" : "comment",
					"text" : "or",
					"presentation" : 1,
					"numinlets" : 1,
					"fontface" : 1,
					"fontsize" : 30.0,
					"numoutlets" : 0,
					"presentation_rect" : [ 305.0, 247.0, 86.0, 41.0 ],
					"id" : "obj-23",
					"fontname" : "Arial",
					"patching_rect" : [ 1120.167969, 569.0, 86.0, 41.0 ]
				}

			}
, 			{
				"box" : 				{
					"maxclass" : "comment",
					"text" : "F#\n\nGb",
					"linecount" : 3,
					"presentation_linecount" : 3,
					"presentation" : 1,
					"numinlets" : 1,
					"fontface" : 1,
					"fontsize" : 44.0,
					"numoutlets" : 0,
					"presentation_rect" : [ 300.0, 185.0, 116.0, 158.0 ],
					"id" : "obj-24",
					"fontname" : "Arial",
					"patching_rect" : [ 1115.167969, 507.0, 116.0, 158.0 ]
				}

			}
, 			{
				"box" : 				{
					"maxclass" : "comment",
					"text" : "or",
					"presentation" : 1,
					"numinlets" : 1,
					"fontface" : 1,
					"fontsize" : 30.0,
					"numoutlets" : 0,
					"presentation_rect" : [ 144.0, 247.0, 86.0, 41.0 ],
					"id" : "obj-19",
					"fontname" : "Arial",
					"patching_rect" : [ 959.16803, 569.0, 86.0, 41.0 ]
				}

			}
, 			{
				"box" : 				{
					"maxclass" : "comment",
					"text" : "D#\n\nEb",
					"linecount" : 3,
					"presentation_linecount" : 3,
					"presentation" : 1,
					"numinlets" : 1,
					"fontface" : 1,
					"fontsize" : 45.0,
					"numoutlets" : 0,
					"presentation_rect" : [ 139.0, 185.0, 119.0, 162.0 ],
					"id" : "obj-20",
					"fontname" : "Arial",
					"patching_rect" : [ 954.16803, 507.0, 119.0, 162.0 ]
				}

			}
, 			{
				"box" : 				{
					"maxclass" : "comment",
					"text" : "or",
					"presentation" : 1,
					"numinlets" : 1,
					"fontface" : 1,
					"fontsize" : 30.0,
					"numoutlets" : 0,
					"presentation_rect" : [ 62.0, 247.0, 86.0, 41.0 ],
					"id" : "obj-18",
					"fontname" : "Arial",
					"patching_rect" : [ 877.16803, 569.0, 86.0, 41.0 ]
				}

			}
, 			{
				"box" : 				{
					"maxclass" : "comment",
					"text" : "C#\n\nDb",
					"linecount" : 3,
					"presentation_linecount" : 3,
					"presentation" : 1,
					"numinlets" : 1,
					"fontface" : 1,
					"fontsize" : 45.0,
					"numoutlets" : 0,
					"presentation_rect" : [ 57.0, 185.0, 119.0, 162.0 ],
					"id" : "obj-17",
					"fontname" : "Arial",
					"patching_rect" : [ 872.16803, 507.0, 119.0, 162.0 ]
				}

			}
, 			{
				"box" : 				{
					"maxclass" : "comment",
					"text" : "B",
					"presentation" : 1,
					"numinlets" : 1,
					"frgb" : [ 1.0, 1.0, 1.0, 1.0 ],
					"textcolor" : [ 1.0, 1.0, 1.0, 1.0 ],
					"fontface" : 1,
					"fontsize" : 72.0,
					"numoutlets" : 0,
					"presentation_rect" : [ 1071.0, 405.0, 68.0, 89.0 ],
					"id" : "obj-10",
					"fontname" : "Arial",
					"patching_rect" : [ 1886.167969, 727.0, 68.0, 89.0 ]
				}

			}
, 			{
				"box" : 				{
					"maxclass" : "comment",
					"text" : "A",
					"presentation" : 1,
					"numinlets" : 1,
					"frgb" : [ 1.0, 1.0, 1.0, 1.0 ],
					"textcolor" : [ 1.0, 1.0, 1.0, 1.0 ],
					"fontface" : 1,
					"fontsize" : 72.0,
					"numoutlets" : 0,
					"presentation_rect" : [ 989.0, 405.0, 68.0, 89.0 ],
					"id" : "obj-11",
					"fontname" : "Arial",
					"patching_rect" : [ 1804.167969, 727.0, 68.0, 89.0 ]
				}

			}
, 			{
				"box" : 				{
					"maxclass" : "comment",
					"text" : "G",
					"presentation" : 1,
					"numinlets" : 1,
					"frgb" : [ 1.0, 1.0, 1.0, 1.0 ],
					"textcolor" : [ 1.0, 1.0, 1.0, 1.0 ],
					"fontface" : 1,
					"fontsize" : 72.0,
					"numoutlets" : 0,
					"presentation_rect" : [ 907.0, 405.0, 68.0, 89.0 ],
					"id" : "obj-12",
					"fontname" : "Arial",
					"patching_rect" : [ 1722.167969, 727.0, 68.0, 89.0 ]
				}

			}
, 			{
				"box" : 				{
					"maxclass" : "comment",
					"text" : "F",
					"presentation" : 1,
					"numinlets" : 1,
					"frgb" : [ 1.0, 1.0, 1.0, 1.0 ],
					"textcolor" : [ 1.0, 1.0, 1.0, 1.0 ],
					"fontface" : 1,
					"fontsize" : 72.0,
					"numoutlets" : 0,
					"presentation_rect" : [ 827.0, 405.0, 68.0, 89.0 ],
					"id" : "obj-13",
					"fontname" : "Arial",
					"patching_rect" : [ 1642.167969, 727.0, 68.0, 89.0 ]
				}

			}
, 			{
				"box" : 				{
					"maxclass" : "comment",
					"text" : "E",
					"presentation" : 1,
					"numinlets" : 1,
					"frgb" : [ 1.0, 1.0, 1.0, 1.0 ],
					"textcolor" : [ 1.0, 1.0, 1.0, 1.0 ],
					"fontface" : 1,
					"fontsize" : 72.0,
					"numoutlets" : 0,
					"presentation_rect" : [ 745.0, 405.0, 68.0, 89.0 ],
					"id" : "obj-14",
					"fontname" : "Arial",
					"patching_rect" : [ 1560.167969, 727.0, 68.0, 89.0 ]
				}

			}
, 			{
				"box" : 				{
					"maxclass" : "comment",
					"text" : "D",
					"presentation" : 1,
					"numinlets" : 1,
					"frgb" : [ 1.0, 1.0, 1.0, 1.0 ],
					"textcolor" : [ 1.0, 1.0, 1.0, 1.0 ],
					"fontface" : 1,
					"fontsize" : 72.0,
					"numoutlets" : 0,
					"presentation_rect" : [ 664.0, 405.0, 68.0, 89.0 ],
					"id" : "obj-15",
					"fontname" : "Arial",
					"patching_rect" : [ 1479.167969, 727.0, 68.0, 89.0 ]
				}

			}
, 			{
				"box" : 				{
					"maxclass" : "comment",
					"text" : "C",
					"presentation" : 1,
					"numinlets" : 1,
					"frgb" : [ 1.0, 1.0, 1.0, 1.0 ],
					"textcolor" : [ 1.0, 1.0, 1.0, 1.0 ],
					"fontface" : 1,
					"fontsize" : 72.0,
					"numoutlets" : 0,
					"presentation_rect" : [ 585.0, 405.0, 68.0, 89.0 ],
					"id" : "obj-16",
					"fontname" : "Arial",
					"patching_rect" : [ 1400.167969, 727.0, 68.0, 89.0 ]
				}

			}
, 			{
				"box" : 				{
					"maxclass" : "comment",
					"text" : "B",
					"presentation" : 1,
					"numinlets" : 1,
					"frgb" : [ 1.0, 1.0, 1.0, 1.0 ],
					"textcolor" : [ 1.0, 1.0, 1.0, 1.0 ],
					"fontface" : 1,
					"fontsize" : 72.0,
					"numoutlets" : 0,
					"presentation_rect" : [ 505.0, 406.0, 68.0, 89.0 ],
					"id" : "obj-9",
					"fontname" : "Arial",
					"patching_rect" : [ 1320.167969, 728.0, 68.0, 89.0 ]
				}

			}
, 			{
				"box" : 				{
					"maxclass" : "comment",
					"text" : "A",
					"presentation" : 1,
					"numinlets" : 1,
					"frgb" : [ 1.0, 1.0, 1.0, 1.0 ],
					"textcolor" : [ 1.0, 1.0, 1.0, 1.0 ],
					"fontface" : 1,
					"fontsize" : 72.0,
					"numoutlets" : 0,
					"presentation_rect" : [ 423.0, 406.0, 68.0, 89.0 ],
					"id" : "obj-8",
					"fontname" : "Arial",
					"patching_rect" : [ 1238.167969, 728.0, 68.0, 89.0 ]
				}

			}
, 			{
				"box" : 				{
					"maxclass" : "comment",
					"text" : "G",
					"presentation" : 1,
					"numinlets" : 1,
					"frgb" : [ 1.0, 1.0, 1.0, 1.0 ],
					"textcolor" : [ 1.0, 1.0, 1.0, 1.0 ],
					"fontface" : 1,
					"fontsize" : 72.0,
					"numoutlets" : 0,
					"presentation_rect" : [ 341.0, 406.0, 68.0, 89.0 ],
					"id" : "obj-7",
					"fontname" : "Arial",
					"patching_rect" : [ 1156.167969, 728.0, 68.0, 89.0 ]
				}

			}
, 			{
				"box" : 				{
					"maxclass" : "comment",
					"text" : "F",
					"presentation" : 1,
					"numinlets" : 1,
					"frgb" : [ 1.0, 1.0, 1.0, 1.0 ],
					"textcolor" : [ 1.0, 1.0, 1.0, 1.0 ],
					"fontface" : 1,
					"fontsize" : 72.0,
					"numoutlets" : 0,
					"presentation_rect" : [ 261.0, 406.0, 68.0, 89.0 ],
					"id" : "obj-6",
					"fontname" : "Arial",
					"patching_rect" : [ 1076.167969, 728.0, 68.0, 89.0 ]
				}

			}
, 			{
				"box" : 				{
					"maxclass" : "comment",
					"text" : "E",
					"presentation" : 1,
					"numinlets" : 1,
					"frgb" : [ 1.0, 1.0, 1.0, 1.0 ],
					"textcolor" : [ 1.0, 1.0, 1.0, 1.0 ],
					"fontface" : 1,
					"fontsize" : 72.0,
					"numoutlets" : 0,
					"presentation_rect" : [ 179.0, 406.0, 68.0, 89.0 ],
					"id" : "obj-5",
					"fontname" : "Arial",
					"patching_rect" : [ 994.16803, 728.0, 68.0, 89.0 ]
				}

			}
, 			{
				"box" : 				{
					"maxclass" : "comment",
					"text" : "D",
					"presentation" : 1,
					"numinlets" : 1,
					"frgb" : [ 1.0, 1.0, 1.0, 1.0 ],
					"textcolor" : [ 1.0, 1.0, 1.0, 1.0 ],
					"fontface" : 1,
					"fontsize" : 72.0,
					"numoutlets" : 0,
					"presentation_rect" : [ 98.0, 406.0, 68.0, 89.0 ],
					"id" : "obj-4",
					"fontname" : "Arial",
					"patching_rect" : [ 913.16803, 728.0, 68.0, 89.0 ]
				}

			}
, 			{
				"box" : 				{
					"maxclass" : "comment",
					"text" : "C",
					"presentation" : 1,
					"numinlets" : 1,
					"frgb" : [ 1.0, 1.0, 1.0, 1.0 ],
					"textcolor" : [ 1.0, 1.0, 1.0, 1.0 ],
					"fontface" : 1,
					"fontsize" : 72.0,
					"numoutlets" : 0,
					"presentation_rect" : [ 19.0, 406.0, 68.0, 89.0 ],
					"id" : "obj-3",
					"fontname" : "Arial",
					"patching_rect" : [ 834.16803, 728.0, 68.0, 89.0 ]
				}

			}
, 			{
				"box" : 				{
					"maxclass" : "umenu",
					"presentation" : 1,
					"numinlets" : 1,
					"textcolor" : [ 0.0, 0.0, 0.0, 1.0 ],
					"fontsize" : 16.0,
					"numoutlets" : 3,
					"items" : [ "c0", ",", "c#0", ",", "d0", ",", "d#0", ",", "e0", ",", "f0", ",", "f#0", ",", "g0", ",", "g#0", ",", "a0", ",", "a#0", ",", "b0", ",", "bb0", ",", "ab0", ",", "gb0", ",", "eb0", ",", "db0" ],
					"outlettype" : [ "int", "", "" ],
					"presentation_rect" : [ 345.0, 150.0, 76.0, 25.0 ],
					"labelclick" : 1,
					"id" : "obj-81",
					"fontname" : "Arial",
					"types" : [  ],
					"patching_rect" : [ 343.0, 239.0, 76.0, 25.0 ]
				}

			}
, 			{
				"box" : 				{
					"maxclass" : "umenu",
					"presentation" : 1,
					"numinlets" : 1,
					"textcolor" : [ 0.0, 0.0, 0.0, 1.0 ],
					"fontsize" : 16.0,
					"numoutlets" : 3,
					"items" : [ "C+", ",", "C#+", ",", "D+", ",", "D#+", ",", "E+", ",", "F+", ",", "F#+", ",", "G+", ",", "G#+", ",", "A+", ",", "A#+", ",", "B+", ",", "Bb+", ",", "Ab+", ",", "Gb+", ",", "Eb+", ",", "Db+" ],
					"outlettype" : [ "int", "", "" ],
					"presentation_rect" : [ 345.0, 127.0, 76.0, 25.0 ],
					"labelclick" : 1,
					"id" : "obj-82",
					"fontname" : "Arial",
					"types" : [  ],
					"patching_rect" : [ 343.0, 216.0, 76.0, 25.0 ]
				}

			}
, 			{
				"box" : 				{
					"maxclass" : "umenu",
					"presentation" : 1,
					"numinlets" : 1,
					"textcolor" : [ 0.0, 0.0, 0.0, 1.0 ],
					"fontsize" : 16.0,
					"numoutlets" : 3,
					"items" : [ "c", ",", "c#", ",", "d", ",", "d#", ",", "e", ",", "f", ",", "f#", ",", "g", ",", "g#", ",", "a", ",", "a#", ",", "b", ",", "bb", ",", "ab", ",", "gb", ",", "eb", ",", "db" ],
					"outlettype" : [ "int", "", "" ],
					"presentation_rect" : [ 345.0, 101.0, 76.0, 25.0 ],
					"labelclick" : 1,
					"id" : "obj-83",
					"fontname" : "Arial",
					"types" : [  ],
					"patching_rect" : [ 343.0, 190.0, 76.0, 25.0 ]
				}

			}
, 			{
				"box" : 				{
					"maxclass" : "umenu",
					"presentation" : 1,
					"numinlets" : 1,
					"textcolor" : [ 0.0, 0.0, 0.0, 1.0 ],
					"fontsize" : 16.0,
					"numoutlets" : 3,
					"items" : [ "C", ",", "C#", ",", "D", ",", "D#", ",", "E", ",", "F", ",", "F#", ",", "G", ",", "G#", ",", "A", ",", "A#", ",", "B", ",", "Bb", ",", "Ab", ",", "Gb", ",", "Eb", ",", "Db" ],
					"outlettype" : [ "int", "", "" ],
					"presentation_rect" : [ 345.0, 77.0, 76.0, 25.0 ],
					"labelclick" : 1,
					"id" : "obj-84",
					"fontname" : "Arial",
					"types" : [  ],
					"patching_rect" : [ 343.0, 166.0, 76.0, 25.0 ]
				}

			}
, 			{
				"box" : 				{
					"maxclass" : "comment",
					"text" : "Augmented",
					"presentation" : 1,
					"numinlets" : 1,
					"fontsize" : 16.0,
					"numoutlets" : 0,
					"presentation_rect" : [ 258.0, 151.0, 174.0, 25.0 ],
					"id" : "obj-120",
					"fontname" : "Arial",
					"patching_rect" : [ 256.0, 240.0, 174.0, 25.0 ]
				}

			}
, 			{
				"box" : 				{
					"maxclass" : "comment",
					"text" : "Diminished",
					"presentation" : 1,
					"numinlets" : 1,
					"fontsize" : 16.0,
					"numoutlets" : 0,
					"presentation_rect" : [ 258.0, 130.0, 177.0, 25.0 ],
					"id" : "obj-121",
					"fontname" : "Arial",
					"patching_rect" : [ 256.0, 219.0, 177.0, 25.0 ]
				}

			}
, 			{
				"box" : 				{
					"maxclass" : "comment",
					"text" : "Minor",
					"presentation" : 1,
					"numinlets" : 1,
					"fontsize" : 16.0,
					"numoutlets" : 0,
					"presentation_rect" : [ 289.0, 104.0, 88.0, 25.0 ],
					"id" : "obj-122",
					"fontname" : "Arial",
					"patching_rect" : [ 287.0, 193.0, 88.0, 25.0 ]
				}

			}
, 			{
				"box" : 				{
					"maxclass" : "comment",
					"text" : "Major",
					"presentation" : 1,
					"numinlets" : 1,
					"fontsize" : 16.0,
					"numoutlets" : 0,
					"presentation_rect" : [ 289.0, 81.0, 88.0, 25.0 ],
					"id" : "obj-123",
					"fontname" : "Arial",
					"patching_rect" : [ 287.0, 170.0, 88.0, 25.0 ]
				}

			}
, 			{
				"box" : 				{
					"maxclass" : "bpatcher",
					"varname" : "EAMIR_chord_generation",
					"presentation" : 1,
					"numinlets" : 2,
					"name" : "EAMIR_chord_generation.maxpat",
					"numoutlets" : 8,
					"args" : [  ],
					"outlettype" : [ "", "", "", "", "", "", "", "bang" ],
					"presentation_rect" : [ 417.0, 50.0, 411.0, 129.0 ],
					"id" : "obj-44",
					"patching_rect" : [ 160.0, 415.0, 412.0, 129.0 ]
				}

			}
, 			{
				"box" : 				{
					"maxclass" : "kslider",
					"presentation" : 1,
					"numinlets" : 2,
					"mode" : 1,
					"numoutlets" : 2,
					"outlettype" : [ "int", "int" ],
					"presentation_rect" : [ 10.0, 182.0, 1377.0, 315.0 ],
					"offset" : 0,
					"range" : 29,
					"id" : "obj-1",
					"patching_rect" : [ 825.16803, 504.0, 1377.0, 315.0 ],
					"hkeycolor" : [ 0.584314, 0.172549, 1.0, 1.0 ]
				}

			}
, 			{
				"box" : 				{
					"maxclass" : "kslider",
					"presentation" : 1,
					"numinlets" : 2,
					"mode" : 1,
					"numoutlets" : 2,
					"outlettype" : [ "int", "int" ],
					"presentation_rect" : [ 10.335495, 507.442017, 1377.0, 315.0 ],
					"offset" : 48,
					"range" : 29,
					"id" : "obj-151",
					"patching_rect" : [ 823.703918, 824.345032, 1377.0, 315.0 ],
					"hkeycolor" : [ 0.584314, 0.172549, 1.0, 1.0 ]
				}

			}
 ],
		"lines" : [ 			{
				"patchline" : 				{
					"source" : [ "obj-2", 1 ],
					"destination" : [ "obj-42", 1 ],
					"hidden" : 0,
					"midpoints" : [ 916.268005, 621.0, 286.75, 621.0 ]
				}

			}
, 			{
				"patchline" : 				{
					"source" : [ "obj-2", 0 ],
					"destination" : [ "obj-42", 0 ],
					"hidden" : 0,
					"midpoints" : [ 834.66803, 638.128967, 169.5, 638.128967 ]
				}

			}
, 			{
				"patchline" : 				{
					"source" : [ "obj-2", 1 ],
					"destination" : [ "obj-1", 1 ],
					"hidden" : 0,
					"midpoints" : [ 916.268005, 420.5, 2192.667969, 420.5 ]
				}

			}
, 			{
				"patchline" : 				{
					"source" : [ "obj-2", 0 ],
					"destination" : [ "obj-151", 0 ],
					"hidden" : 0,
					"midpoints" : [  ]
				}

			}
, 			{
				"patchline" : 				{
					"source" : [ "obj-2", 1 ],
					"destination" : [ "obj-151", 1 ],
					"hidden" : 0,
					"midpoints" : [ 916.268005, 637.86084, 2191.203857, 637.86084 ]
				}

			}
, 			{
				"patchline" : 				{
					"source" : [ "obj-60", 0 ],
					"destination" : [ "obj-44", 0 ],
					"hidden" : 0,
					"midpoints" : [  ]
				}

			}
, 			{
				"patchline" : 				{
					"source" : [ "obj-60", 1 ],
					"destination" : [ "obj-1", 0 ],
					"hidden" : 0,
					"midpoints" : [ 203.5, 400.5, 834.66803, 400.5 ]
				}

			}
, 			{
				"patchline" : 				{
					"source" : [ "obj-81", 1 ],
					"destination" : [ "obj-60", 0 ],
					"hidden" : 0,
					"midpoints" : [ 381.0, 311.0, 169.5, 311.0 ]
				}

			}
, 			{
				"patchline" : 				{
					"source" : [ "obj-82", 1 ],
					"destination" : [ "obj-60", 0 ],
					"hidden" : 0,
					"midpoints" : [ 381.0, 299.5, 169.5, 299.5 ]
				}

			}
, 			{
				"patchline" : 				{
					"source" : [ "obj-83", 1 ],
					"destination" : [ "obj-60", 0 ],
					"hidden" : 0,
					"midpoints" : [ 381.0, 286.5, 169.5, 286.5 ]
				}

			}
, 			{
				"patchline" : 				{
					"source" : [ "obj-84", 1 ],
					"destination" : [ "obj-60", 0 ],
					"hidden" : 0,
					"midpoints" : [ 381.0, 274.5, 169.5, 274.5 ]
				}

			}
, 			{
				"patchline" : 				{
					"source" : [ "obj-85", 0 ],
					"destination" : [ "obj-60", 0 ],
					"hidden" : 0,
					"midpoints" : [ 49.5, 314.0, 169.5, 314.0 ]
				}

			}
, 			{
				"patchline" : 				{
					"source" : [ "obj-145", 0 ],
					"destination" : [ "obj-60", 0 ],
					"hidden" : 0,
					"midpoints" : [ 110.631584, 365.0, 169.5, 365.0 ]
				}

			}
, 			{
				"patchline" : 				{
					"source" : [ "obj-39", 0 ],
					"destination" : [ "obj-173", 0 ],
					"hidden" : 0,
					"midpoints" : [  ]
				}

			}
, 			{
				"patchline" : 				{
					"source" : [ "obj-44", 7 ],
					"destination" : [ "obj-80", 0 ],
					"hidden" : 0,
					"midpoints" : [ 562.5, 549.0, 572.5, 549.0 ]
				}

			}
, 			{
				"patchline" : 				{
					"source" : [ "obj-80", 0 ],
					"destination" : [ "obj-1", 1 ],
					"hidden" : 0,
					"midpoints" : [ 572.5, 582.0, 861.0, 582.0, 861.0, 499.0, 2192.667969, 499.0 ]
				}

			}
, 			{
				"patchline" : 				{
					"source" : [ "obj-55", 0 ],
					"destination" : [ "obj-1", 0 ],
					"hidden" : 0,
					"midpoints" : [ 241.757889, 588.5, 834.66803, 588.5 ]
				}

			}
, 			{
				"patchline" : 				{
					"source" : [ "obj-44", 6 ],
					"destination" : [ "obj-55", 0 ],
					"hidden" : 0,
					"midpoints" : [ 506.357147, 547.5, 241.757889, 547.5 ]
				}

			}
, 			{
				"patchline" : 				{
					"source" : [ "obj-44", 5 ],
					"destination" : [ "obj-55", 0 ],
					"hidden" : 0,
					"midpoints" : [ 450.214294, 554.5, 241.757889, 554.5 ]
				}

			}
, 			{
				"patchline" : 				{
					"source" : [ "obj-44", 4 ],
					"destination" : [ "obj-55", 0 ],
					"hidden" : 0,
					"midpoints" : [ 394.071442, 553.5, 241.757889, 553.5 ]
				}

			}
, 			{
				"patchline" : 				{
					"source" : [ "obj-44", 3 ],
					"destination" : [ "obj-55", 0 ],
					"hidden" : 0,
					"midpoints" : [ 337.928558, 553.5, 241.757889, 553.5 ]
				}

			}
, 			{
				"patchline" : 				{
					"source" : [ "obj-44", 2 ],
					"destination" : [ "obj-55", 0 ],
					"hidden" : 0,
					"midpoints" : [ 281.785706, 554.5, 241.757889, 554.5 ]
				}

			}
, 			{
				"patchline" : 				{
					"source" : [ "obj-44", 1 ],
					"destination" : [ "obj-55", 0 ],
					"hidden" : 0,
					"midpoints" : [ 225.642853, 553.5, 241.757889, 553.5 ]
				}

			}
, 			{
				"patchline" : 				{
					"source" : [ "obj-44", 0 ],
					"destination" : [ "obj-55", 0 ],
					"hidden" : 0,
					"midpoints" : [ 169.5, 547.5, 241.757889, 547.5 ]
				}

			}
, 			{
				"patchline" : 				{
					"source" : [ "obj-173", 0 ],
					"destination" : [ "obj-85", 0 ],
					"hidden" : 0,
					"midpoints" : [  ]
				}

			}
, 			{
				"patchline" : 				{
					"source" : [ "obj-90", 0 ],
					"destination" : [ "obj-89", 0 ],
					"hidden" : 0,
					"midpoints" : [  ]
				}

			}
, 			{
				"patchline" : 				{
					"source" : [ "obj-92", 0 ],
					"destination" : [ "obj-90", 0 ],
					"hidden" : 0,
					"midpoints" : [  ]
				}

			}
, 			{
				"patchline" : 				{
					"source" : [ "obj-44", 0 ],
					"destination" : [ "obj-93", 0 ],
					"hidden" : 0,
					"midpoints" : [  ]
				}

			}
, 			{
				"patchline" : 				{
					"source" : [ "obj-44", 1 ],
					"destination" : [ "obj-93", 0 ],
					"hidden" : 0,
					"midpoints" : [ 225.642853, 547.5, 169.5, 547.5 ]
				}

			}
, 			{
				"patchline" : 				{
					"source" : [ "obj-44", 2 ],
					"destination" : [ "obj-93", 0 ],
					"hidden" : 0,
					"midpoints" : [ 281.785706, 547.5, 169.5, 547.5 ]
				}

			}
, 			{
				"patchline" : 				{
					"source" : [ "obj-44", 3 ],
					"destination" : [ "obj-93", 0 ],
					"hidden" : 0,
					"midpoints" : [ 337.928558, 547.5, 169.5, 547.5 ]
				}

			}
, 			{
				"patchline" : 				{
					"source" : [ "obj-44", 4 ],
					"destination" : [ "obj-93", 0 ],
					"hidden" : 0,
					"midpoints" : [ 394.071442, 547.5, 169.5, 547.5 ]
				}

			}
, 			{
				"patchline" : 				{
					"source" : [ "obj-44", 5 ],
					"destination" : [ "obj-93", 0 ],
					"hidden" : 0,
					"midpoints" : [ 450.214294, 547.5, 169.5, 547.5 ]
				}

			}
, 			{
				"patchline" : 				{
					"source" : [ "obj-44", 6 ],
					"destination" : [ "obj-93", 0 ],
					"hidden" : 0,
					"midpoints" : [ 506.357147, 547.5, 169.5, 547.5 ]
				}

			}
, 			{
				"patchline" : 				{
					"source" : [ "obj-93", 0 ],
					"destination" : [ "obj-94", 0 ],
					"hidden" : 0,
					"midpoints" : [  ]
				}

			}
, 			{
				"patchline" : 				{
					"source" : [ "obj-94", 0 ],
					"destination" : [ "obj-95", 0 ],
					"hidden" : 0,
					"midpoints" : [  ]
				}

			}
, 			{
				"patchline" : 				{
					"source" : [ "obj-99", 0 ],
					"destination" : [ "obj-92", 0 ],
					"hidden" : 0,
					"midpoints" : [  ]
				}

			}
, 			{
				"patchline" : 				{
					"source" : [ "obj-95", 0 ],
					"destination" : [ "obj-42", 0 ],
					"hidden" : 0,
					"midpoints" : [  ]
				}

			}
, 			{
				"patchline" : 				{
					"source" : [ "obj-95", 1 ],
					"destination" : [ "obj-42", 1 ],
					"hidden" : 0,
					"midpoints" : [ 233.5, 634.0, 286.75, 634.0 ]
				}

			}
, 			{
				"patchline" : 				{
					"source" : [ "obj-44", 7 ],
					"destination" : [ "obj-42", 4 ],
					"hidden" : 0,
					"midpoints" : [ 562.5, 594.5, 638.5, 594.5 ]
				}

			}
, 			{
				"patchline" : 				{
					"source" : [ "obj-102", 0 ],
					"destination" : [ "obj-42", 4 ],
					"hidden" : 0,
					"midpoints" : [ 670.5, 636.0, 638.5, 636.0 ]
				}

			}
 ],
		"parameters" : 		{

		}

	}

}
