{
	"patcher" : 	{
		"fileversion" : 1,
		"rect" : [ 484.0, 157.0, 193.0, 374.0 ],
		"bglocked" : 0,
		"defrect" : [ 484.0, 157.0, 193.0, 374.0 ],
		"openrect" : [ 0.0, 0.0, 0.0, 0.0 ],
		"openinpresentation" : 0,
		"default_fontsize" : 12.0,
		"default_fontface" : 0,
		"default_fontname" : "Arial",
		"gridonopen" : 0,
		"gridsize" : [ 15.0, 15.0 ],
		"gridsnaponopen" : 0,
		"toolbarvisible" : 1,
		"boxanimatetime" : 200,
		"imprint" : 0,
		"enablehscroll" : 1,
		"enablevscroll" : 1,
		"devicewidth" : 0.0,
		"boxes" : [ 			{
				"box" : 				{
					"maxclass" : "flonum",
					"id" : "obj-57",
					"numinlets" : 1,
					"fontsize" : 12.0,
					"numoutlets" : 2,
					"outlettype" : [ "float", "bang" ],
					"patching_rect" : [ 57.83918, 122.710846, 50.0, 20.0 ],
					"fontname" : "Arial"
				}

			}
, 			{
				"box" : 				{
					"maxclass" : "message",
					"text" : "#2",
					"id" : "obj-53",
					"numinlets" : 2,
					"fontsize" : 12.0,
					"numoutlets" : 1,
					"outlettype" : [ "" ],
					"patching_rect" : [ 57.766174, 259.689423, 32.5, 18.0 ],
					"fontname" : "Arial"
				}

			}
, 			{
				"box" : 				{
					"maxclass" : "button",
					"id" : "obj-49",
					"numinlets" : 1,
					"numoutlets" : 1,
					"outlettype" : [ "bang" ],
					"patching_rect" : [ 58.163147, 237.994293, 20.0, 20.0 ]
				}

			}
, 			{
				"box" : 				{
					"maxclass" : "toggle",
					"id" : "obj-47",
					"numinlets" : 1,
					"numoutlets" : 1,
					"outlettype" : [ "int" ],
					"patching_rect" : [ 58.163147, 168.994324, 20.0, 20.0 ]
				}

			}
, 			{
				"box" : 				{
					"maxclass" : "newobj",
					"text" : "change",
					"id" : "obj-24",
					"numinlets" : 1,
					"fontsize" : 12.0,
					"numoutlets" : 3,
					"outlettype" : [ "", "int", "int" ],
					"patching_rect" : [ 58.163147, 191.994324, 51.0, 20.0 ],
					"fontname" : "Arial"
				}

			}
, 			{
				"box" : 				{
					"maxclass" : "newobj",
					"text" : "< #1",
					"id" : "obj-31",
					"numinlets" : 2,
					"fontsize" : 12.0,
					"numoutlets" : 1,
					"outlettype" : [ "int" ],
					"patching_rect" : [ 58.163147, 145.994324, 34.0, 20.0 ],
					"fontname" : "Arial"
				}

			}
, 			{
				"box" : 				{
					"maxclass" : "newobj",
					"text" : "sel 1",
					"id" : "obj-39",
					"numinlets" : 2,
					"fontsize" : 12.0,
					"numoutlets" : 2,
					"outlettype" : [ "bang", "" ],
					"patching_rect" : [ 58.163147, 214.994324, 39.0, 20.0 ],
					"fontname" : "Arial"
				}

			}
, 			{
				"box" : 				{
					"maxclass" : "newobj",
					"text" : "jit.3m",
					"id" : "obj-42",
					"numinlets" : 1,
					"fontsize" : 12.0,
					"numoutlets" : 4,
					"outlettype" : [ "", "", "", "" ],
					"patching_rect" : [ 50.0, 101.0, 44.0, 20.0 ],
					"fontname" : "Arial"
				}

			}
, 			{
				"box" : 				{
					"maxclass" : "inlet",
					"id" : "obj-64",
					"numinlets" : 0,
					"numoutlets" : 1,
					"outlettype" : [ "" ],
					"patching_rect" : [ 50.395691, 73.874542, 25.0, 25.0 ],
					"comment" : ""
				}

			}
, 			{
				"box" : 				{
					"maxclass" : "outlet",
					"id" : "obj-65",
					"numinlets" : 1,
					"numoutlets" : 0,
					"patching_rect" : [ 57.96402, 280.292938, 25.0, 25.0 ],
					"comment" : ""
				}

			}
 ],
		"lines" : [ 			{
				"patchline" : 				{
					"source" : [ "obj-39", 0 ],
					"destination" : [ "obj-49", 0 ],
					"hidden" : 0,
					"midpoints" : [  ]
				}

			}
, 			{
				"patchline" : 				{
					"source" : [ "obj-47", 0 ],
					"destination" : [ "obj-24", 0 ],
					"hidden" : 0,
					"midpoints" : [  ]
				}

			}
, 			{
				"patchline" : 				{
					"source" : [ "obj-24", 0 ],
					"destination" : [ "obj-39", 0 ],
					"hidden" : 0,
					"midpoints" : [  ]
				}

			}
, 			{
				"patchline" : 				{
					"source" : [ "obj-42", 1 ],
					"destination" : [ "obj-57", 0 ],
					"hidden" : 0,
					"midpoints" : [  ]
				}

			}
, 			{
				"patchline" : 				{
					"source" : [ "obj-49", 0 ],
					"destination" : [ "obj-53", 0 ],
					"hidden" : 0,
					"midpoints" : [  ]
				}

			}
, 			{
				"patchline" : 				{
					"source" : [ "obj-64", 0 ],
					"destination" : [ "obj-42", 0 ],
					"hidden" : 0,
					"midpoints" : [  ]
				}

			}
, 			{
				"patchline" : 				{
					"source" : [ "obj-53", 0 ],
					"destination" : [ "obj-65", 0 ],
					"hidden" : 0,
					"midpoints" : [  ]
				}

			}
, 			{
				"patchline" : 				{
					"source" : [ "obj-57", 0 ],
					"destination" : [ "obj-31", 0 ],
					"hidden" : 0,
					"midpoints" : [  ]
				}

			}
, 			{
				"patchline" : 				{
					"source" : [ "obj-31", 0 ],
					"destination" : [ "obj-47", 0 ],
					"hidden" : 0,
					"midpoints" : [  ]
				}

			}
 ]
	}

}
